<?xml version="1.0" encoding="UTF-8" standalone="no"?>
<svg
   xmlns="http://www.w3.org/2000/svg"
   viewBox="0 0 240 240"
   height="240"
   width="240"
   xml:space="preserve"
   id="svg2"
   version="1.1"><defs
     id="defs6"><clipPath
       id="clipPath18"
       clipPathUnits="userSpaceOnUse"><path
         id="path16"
         d="M 0,180 H 180 V 0 H 0 Z" /></clipPath></defs><g
     transform="matrix(1.3333333,0,0,-1.3333333,0,240)"
     id="g10"><g
       id="g12"><g
         clip-path="url(#clipPath18)"
         id="g14"><g
           transform="translate(157.4834,85.5146)"
           id="g20"><path
             id="path22"
             style="fill:#ccd4d9;fill-opacity:1;fill-rule:nonzero;stroke:none"
             d="m 0,0 -2.368,-0.802 c 0.59,-1.739 0.895,-3.756 0.895,-5.997 0.008,-5.336 -1.761,-11.907 -5.121,-18.668 -5.028,-10.151 -13.588,-20.722 -24.528,-28.673 -10.948,-7.961 -24.225,-13.308 -38.826,-13.307 -18.633,0.001 -35.479,7.545 -47.692,19.755 -12.21,12.213 -19.754,29.059 -19.755,47.692 0.004,10.814 2.821,20.102 7.406,28.12 6.871,12.017 17.81,21.165 29.171,27.647 11.346,6.484 23.108,10.289 31.301,11.718 3.865,0.677 7.003,0.982 9.507,0.981 2.657,0.002 4.582,-0.345 5.935,-0.874 1.187,-0.468 1.953,-1.041 2.573,-1.761 0.539,-0.634 0.971,-1.414 1.325,-2.404 0.624,-1.724 0.957,-4.069 1.215,-6.824 0.399,-4.134 0.661,-9.169 2.094,-14.564 1.429,-5.393 4.08,-11.154 9.144,-16.609 4.751,-5.127 9.234,-8.758 13.327,-11.469 6.132,-4.062 11.391,-6.069 15.126,-7.971 1.872,-0.947 3.337,-1.852 4.431,-2.884 1.094,-1.038 1.878,-2.179 2.472,-3.908 L 0,0 2.368,0.802 C 1.817,2.431 1.055,3.854 0.112,5.073 -0.712,6.14 -1.665,7.045 -2.694,7.832 c -1.807,1.376 -3.829,2.406 -6.028,3.455 -3.3,1.568 -7.034,3.175 -11.254,5.781 -4.216,2.605 -8.924,6.201 -14.08,11.761 -4.438,4.798 -6.676,9.66 -7.962,14.426 -0.958,3.573 -1.356,7.09 -1.66,10.426 -0.23,2.503 -0.404,4.9 -0.76,7.165 -0.268,1.698 -0.638,3.329 -1.261,4.87 -0.467,1.153 -1.083,2.257 -1.905,3.247 -1.227,1.492 -2.92,2.674 -4.986,3.412 -2.07,0.744 -4.5,1.09 -7.42,1.091 -2.904,0 -6.305,-0.345 -10.369,-1.056 -5.894,-1.034 -13.257,-3.138 -21.052,-6.436 -11.683,-4.952 -24.337,-12.582 -34.172,-23.429 -4.914,-5.423 -9.116,-11.658 -12.088,-18.748 -2.973,-7.088 -4.705,-15.028 -4.704,-23.797 0.001,-40.013 32.435,-72.445 72.447,-72.447 10.558,-10e-4 20.443,2.581 29.293,6.806 13.278,6.345 24.25,16.355 31.959,27.078 3.854,5.365 6.892,10.913 8.983,16.309 2.087,5.399 3.236,10.647 3.24,15.455 -0.001,2.692 -0.364,5.249 -1.159,7.601 z" /></g><g
           transform="translate(63.2959,144.3516)"
           id="g24"><path
             id="path26"
             style="fill:#ffffff;fill-opacity:1;fill-rule:nonzero;stroke:none"
             d="m 0,0 c -0.265,-0.318 -0.77,-0.478 -1.513,-0.478 -0.903,0 -2.495,0.372 -4.778,1.115 -4.884,1.646 -9.396,2.469 -13.537,2.469 -7.538,0 -13.656,-2.23 -18.355,-6.693 -4.698,-4.46 -7.047,-10.277 -7.047,-17.449 0,-3.715 0.584,-7.131 1.748,-10.236 1.168,-3.11 2.968,-5.964 5.41,-8.565 2.438,-2.606 7.3,-6.154 14.581,-10.648 8.928,-5.451 14.798,-9.901 17.607,-13.356 2.805,-3.455 4.212,-7.065 4.212,-10.839 0,-5.048 -1.708,-9.087 -5.127,-12.112 -3.416,-3.031 -7.959,-4.544 -13.631,-4.544 -5.985,0 -11.218,2.097 -15.695,6.291 -4.478,4.193 -6.743,9.768 -6.796,16.723 h -2.787 v -25.243 h 2.787 c 0.85,2.388 2.04,3.583 3.579,3.583 0.739,0 2.465,-0.478 5.167,-1.433 6.57,-2.336 11.98,-3.504 16.218,-3.504 7.313,0 13.569,2.601 18.767,7.804 5.193,5.202 7.79,11.467 7.79,18.793 0,5.679 -1.699,10.723 -5.096,15.129 -3.398,4.406 -10.034,9.556 -19.908,15.448 -8.493,5.097 -14.014,9.264 -16.563,12.502 -2.548,3.239 -3.822,6.822 -3.822,10.75 0,4.247 1.539,7.645 4.619,10.193 3.079,2.549 7.14,3.822 12.183,3.822 5.68,0 10.392,-1.698 14.134,-5.096 3.743,-3.398 5.933,-8.122 6.57,-14.174 H 3.504 V 2.15 H 0.876 C 0.558,1.036 0.266,0.319 0,0" /></g><g
           transform="translate(121.0547,44.1338)"
           id="g28"><path
             id="path30"
             style="fill:#ffffff;fill-opacity:1;fill-rule:nonzero;stroke:none"
             d="m 0,0 -22.641,55.676 h -17.924 v -2.051 c 3.659,-0.603 6.735,-2.252 9.229,-4.946 L -35.619,0 c -0.483,-4.946 -1.378,-8.254 -2.685,-9.919 -1.306,-1.666 -3.428,-2.705 -6.363,-3.11 v -2.051 h 22.017 v 2.051 c -6.14,1.133 -9.209,4.749 -9.209,10.851 0,0.607 0.02,1.249 0.06,1.934 l 3.981,43.514 23.921,-58.35 h 1.856 l 24.239,58.487 3.786,-45.76 c 0.04,-0.686 0.061,-1.313 0.061,-1.879 0,-2.751 -0.557,-4.792 -1.662,-6.129 -1.11,-1.334 -3.013,-2.223 -5.714,-2.668 v -2.051 h 25.455 v 2.051 c -3.096,0.281 -5.237,1.193 -6.424,2.727 -1.186,1.535 -1.98,4.628 -2.383,9.277 l -3.558,43.611 c -0.04,0.563 -0.061,1.106 -0.061,1.629 0,6.153 2.655,9.289 7.962,9.41 v 2.051 H 22.952 Z" /></g></g></g></g></svg>