<svg width="101" height="134" viewBox="0 0 101 134" fill="none" xmlns="http://www.w3.org/2000/svg">
<g clip-path="url(#clip0)">
<g clip-path="url(#clip1)">
<path d="M0.105743 133.333L0.107077 133.339L0.121743 133.329L0.12041 133.327L0.105743 133.333Z" fill="black"/>
<path d="M0.105743 133.324H0.10841L0.109743 133.325L0.12041 133.327L0.109743 133.315L0.105743 133.324Z" fill="black"/>
<path fill-rule="evenodd" clip-rule="evenodd" d="M27.3507 111.867V111.866C27.332 111.875 27.3227 111.882 27.3227 111.882H27.388C27.3747 111.875 27.3653 111.877 27.3507 111.867Z" fill="black"/>
<path fill-rule="evenodd" clip-rule="evenodd" d="M30.2375 118.099L30.2228 118.107L30.2255 118.11L30.2375 118.099Z" fill="black"/>
<path fill-rule="evenodd" clip-rule="evenodd" d="M29.7804 123.155L29.7684 123.159L29.7817 123.167L29.7804 123.155Z" fill="black"/>
<path fill-rule="evenodd" clip-rule="evenodd" d="M30.3012 115.219L30.2852 115.211L30.2999 115.222L30.3012 115.219Z" fill="black"/>
<path fill-rule="evenodd" clip-rule="evenodd" d="M30.3078 115.21L30.3011 115.22L30.3118 115.226L30.3078 115.21Z" fill="black"/>
<path fill-rule="evenodd" clip-rule="evenodd" d="M30.602 115.311L30.586 115.306L30.602 115.327L30.6033 115.33L30.618 115.327L30.6527 115.343L30.602 115.311Z" fill="black"/>
<path fill-rule="evenodd" clip-rule="evenodd" d="M30.602 115.33H30.603L30.602 115.329V115.33Z" fill="black"/>
<path fill-rule="evenodd" clip-rule="evenodd" d="M30.2712 117.917L30.2565 117.909L30.2712 117.918V117.917Z" fill="black"/>
<path fill-rule="evenodd" clip-rule="evenodd" d="M30.2777 117.908L30.2724 117.917L30.2817 117.922L30.2777 117.908Z" fill="black"/>
<path fill-rule="evenodd" clip-rule="evenodd" d="M30.5831 123.078L30.5951 123.085L30.5884 123.07L30.5831 123.078Z" fill="black"/>
<path fill-rule="evenodd" clip-rule="evenodd" d="M45.4875 108.145L45.4888 108.158C45.5675 108.501 45.6355 108.883 45.6821 109.299C45.7461 109.857 45.7581 110.367 45.7435 110.81C45.6555 110.813 45.5675 110.815 45.4795 110.817L45.1621 109.394C45.0021 108.879 45.1101 108.405 45.4875 108.145ZM46.0581 111.225L45.7901 122.529H45.3875L45.6941 111.229L46.0581 111.225ZM46.5341 107.805C46.6261 108.194 46.7075 108.665 46.7381 109.201C46.7755 109.814 46.7381 110.353 46.6781 110.79C46.5301 110.793 46.3808 110.797 46.2328 110.799C46.2328 110.306 46.2088 109.771 46.1541 109.201C46.1115 108.754 46.0528 108.334 45.9861 107.943C46.1688 107.895 46.3501 107.85 46.5341 107.805V107.805ZM47.6435 107.527C47.6901 107.953 47.7235 108.413 47.7368 108.901C47.7568 109.575 47.7355 110.202 47.6888 110.769C47.5141 110.778 47.3368 110.783 47.1595 110.793C47.2048 110.322 47.2221 109.754 47.1675 109.115C47.1208 108.581 47.0315 108.107 46.9315 107.706L47.6435 107.527ZM49.2101 111.181C49.5755 111.175 49.8675 111.481 49.8488 111.843L49.7781 113.295C49.7448 113.962 49.1941 114.486 48.5261 114.486H47.0795C46.7235 114.486 46.4381 114.193 46.4488 113.838L46.5075 111.823C46.5168 111.485 46.7915 111.215 47.1301 111.21L49.2101 111.181ZM48.1861 107.391C48.4288 107.331 48.6781 107.294 48.9261 107.278L48.7568 110.746L48.1301 110.759C48.1821 110.21 48.2155 109.617 48.2221 108.987C48.2301 108.423 48.2155 107.891 48.1861 107.391ZM49.3515 107.283C49.4875 107.287 49.6235 107.282 49.7595 107.297L50.0341 107.333C49.9421 107.785 49.8581 108.27 49.7928 108.786C49.7035 109.481 49.6568 110.129 49.6381 110.727C49.5061 110.729 49.3715 110.733 49.2381 110.735L49.3515 107.283ZM50.3768 107.377L50.9768 107.451C50.8368 107.834 50.7008 108.29 50.6048 108.814C50.4715 109.546 50.4555 110.193 50.4795 110.709C50.3221 110.711 50.1648 110.715 50.0075 110.719C49.9755 110.179 49.9808 109.529 50.0781 108.801C50.1488 108.265 50.2581 107.787 50.3768 107.377V107.377ZM51.3235 107.497C51.5235 107.521 51.7235 107.546 51.9248 107.571C51.7808 107.917 51.6315 108.37 51.5475 108.915C51.4341 109.633 51.4768 110.247 51.5395 110.685C51.3501 110.69 51.1595 110.693 50.9688 110.698C50.9261 110.19 50.9168 109.554 51.0195 108.83C51.0915 108.321 51.2035 107.873 51.3235 107.497V107.497ZM52.0008 108.897C52.0741 108.41 52.1928 107.99 52.3141 107.649C52.3701 107.631 52.4128 107.633 52.4461 107.646C52.7728 107.754 52.6581 108.826 52.6515 108.891L52.3928 110.669L51.9768 110.675C51.9221 110.215 51.8955 109.603 52.0008 108.897V108.897ZM52.3608 123.953H44.9235L45.0061 123.825H52.5101L52.3608 123.953ZM50.2875 113.254L50.3581 111.758C50.3755 111.425 50.6461 111.162 50.9808 111.157L51.7021 111.147C52.0528 111.143 52.3421 111.427 52.3421 111.779V113.935C52.3421 114.285 52.0581 114.566 51.7101 114.566H51.5381C50.8221 114.566 50.2515 113.969 50.2875 113.254V113.254ZM51.4408 114.946H51.7101C52.0581 114.946 52.3421 115.227 52.3421 115.577V121.897C52.3421 122.247 52.0581 122.529 51.7101 122.529H50.7381C50.3861 122.529 50.1021 122.241 50.1061 121.889L50.1861 116.181C50.1968 115.497 50.7541 114.946 51.4408 114.946ZM46.2155 121.881L46.3981 115.595C46.4075 115.254 46.6875 114.982 47.0288 114.982H48.4288C49.1315 114.982 49.6955 115.559 49.6821 116.261L49.5595 121.911C49.5515 122.255 49.2701 122.529 48.9288 122.529H46.8461C46.4901 122.529 46.2061 122.235 46.2155 121.881V121.881ZM45.2941 123.018H52.4741L52.3621 123.182H45.1301L45.2941 123.018ZM45.3088 111.134C45.3315 111.203 45.3421 111.275 45.3395 111.347L45.0661 122.529L45.0355 123.018L44.8995 123.182V123.825L44.8328 123.953V124.066V124.581H52.3608L52.5115 124.142L52.7208 123.643L52.7248 123.018V122.562L52.7261 122.529H52.7248L52.7261 111.133V110.659L52.9928 109.381C53.1741 107.887 53.1541 107.283 51.9168 107.139L49.8888 106.873L49.7821 106.862C48.8288 106.878 48.9995 106.863 48.1248 106.95C48.0955 106.951 48.0608 106.957 48.0315 106.963L47.1115 107.189L45.9475 107.506C45.0301 107.754 44.5101 108.722 44.8088 109.622L45.3088 111.134Z" fill="black"/>
<path fill-rule="evenodd" clip-rule="evenodd" d="M14.156 111.057L13.9614 112.517L13.648 112.524L13.9027 110.036C14.2707 110.187 14.212 110.445 14.156 111.057ZM13.936 123.433H8.33202L8.39469 123.328H14.0507L13.936 123.433ZM8.61069 122.667H14.0227L13.9374 122.801H8.48802L8.61069 122.667ZM8.51202 111.472C8.39202 111.047 8.47335 110.657 8.75735 110.445L8.75869 110.455L8.95069 112.636L8.75069 112.64L8.51202 111.472ZM9.18669 112.975L8.98535 122.264H8.68269L8.91202 112.979L9.18669 112.975ZM9.54535 110.165L9.65469 112.619L9.32002 112.627L9.13202 110.277L9.54535 110.165ZM11.9214 116.921L11.8227 121.94C11.8187 122.121 11.684 122.264 11.5174 122.264H9.60402C9.43335 122.264 9.29469 122.111 9.30002 121.924L9.44802 116.384C9.45335 116.205 9.58669 116.063 9.75069 116.063H11.1494C11.5827 116.063 11.932 116.451 11.9214 116.921V116.921ZM11.7467 112.937C11.9214 112.935 12.0627 113.093 12.0534 113.284L11.9827 114.856C11.9627 115.304 11.624 115.656 11.212 115.656H9.78002C9.60935 115.656 9.47202 115.501 9.47602 115.315L9.53069 113.287C9.53469 113.109 9.66669 112.968 9.82935 112.967L11.7467 112.937ZM10.3814 109.936L10.4174 112.6L10.0174 112.621L9.84669 110.084L10.3814 109.936ZM10.792 109.824C10.9747 109.776 11.1614 109.747 11.3494 109.732L11.2214 112.581L10.7494 112.592L10.7054 109.849L10.792 109.824ZM11.6694 109.737C11.772 109.741 11.8747 109.735 11.9774 109.748L12.184 109.777L11.8854 112.567L11.584 112.573L11.6694 109.737ZM12.8947 109.875L12.5187 112.551L12.164 112.559L12.4414 109.812L12.8947 109.875ZM13.608 109.973L13.3187 112.532L12.8894 112.541L13.156 109.911L13.608 109.973ZM13.9227 116.551V121.932C13.9227 122.116 13.7867 122.264 13.62 122.264H12.54C12.3707 122.264 12.2334 122.112 12.236 121.928L12.3014 116.863C12.3067 116.403 12.6507 116.032 13.0734 116.032H13.4467C13.7094 116.032 13.9227 116.264 13.9227 116.551V116.551ZM13.4467 115.721H13.1374C12.696 115.721 12.344 115.32 12.3654 114.84L12.4347 113.237C12.444 113.063 12.5747 112.924 12.736 112.921L13.6147 112.909C13.784 112.907 13.9227 113.056 13.9227 113.24V115.203C13.9227 115.489 13.7094 115.721 13.4467 115.721V115.721ZM13.6027 109.619L12.0747 109.399L11.9934 109.391C11.2707 109.404 11.4054 109.391 10.7307 109.464C10.7174 109.467 10.7 109.469 10.6867 109.472L9.98135 109.659L8.92802 109.971C8.33202 110.147 7.99469 110.832 8.18802 111.472L8.63069 112.932C8.63602 112.969 8.64135 113.007 8.64669 113.043L8.44002 122.264L8.41602 122.667L8.31335 122.801V123.328L8.26402 123.433V123.529V123.951H13.936L14.0507 123.589L14.2094 123.18L14.212 122.667V122.291V122.264V112.901V112.511L14.4147 111.46C14.5494 110.232 14.536 109.737 13.6027 109.619Z" fill="black"/>
<path fill-rule="evenodd" clip-rule="evenodd" d="M78.3044 108.759L78.0564 110.018L77.8617 110.009C77.8537 109.617 77.8671 109.166 77.9191 108.671C77.9564 108.301 78.0111 107.962 78.0724 107.661L78.0737 107.65C78.3511 107.882 78.4284 108.303 78.3044 108.759ZM78.2137 120.987L72.8537 120.923L72.7711 120.778L78.0937 120.841L78.2137 120.987ZM78.3004 121.557L78.3604 121.673L72.8471 121.607L72.7377 121.491L78.3004 121.557ZM72.9191 107.143C72.9444 107.133 72.9764 107.133 73.0177 107.149C73.1057 107.454 73.1897 107.826 73.2391 108.258C73.3111 108.886 73.2871 109.427 73.2417 109.837L72.9337 109.825L72.7577 108.249C72.7524 108.189 72.6764 107.237 72.9191 107.143ZM73.7537 107.022C73.8377 107.355 73.9177 107.755 73.9671 108.207C74.0377 108.849 74.0257 109.414 73.9897 109.865L73.5657 109.849C73.6164 109.461 73.6537 108.917 73.5751 108.278C73.5164 107.795 73.4097 107.393 73.3071 107.085L73.7537 107.022ZM72.9444 112.725L72.9631 110.811C72.9657 110.499 73.1817 110.25 73.4431 110.257L73.9764 110.273C74.2244 110.279 74.4244 110.514 74.4337 110.81L74.4737 112.137C74.4937 112.771 74.0644 113.297 73.5351 113.29L73.4071 113.289C73.1497 113.287 72.9431 113.033 72.9444 112.725V112.725ZM73.4044 113.623L73.6044 113.626C74.1124 113.633 74.5217 114.125 74.5231 114.733L74.5351 119.797C74.5364 120.109 74.3231 120.361 74.0617 120.358L73.3417 120.35C73.0831 120.346 72.8764 120.094 72.8791 119.785L72.9311 114.178C72.9337 113.87 73.1471 113.621 73.4044 113.623V113.623ZM74.4564 106.923C74.5404 107.289 74.6164 107.714 74.6657 108.189C74.7311 108.838 74.7297 109.413 74.7031 109.891C74.5857 109.887 74.4684 109.883 74.3524 109.879C74.3751 109.422 74.3671 108.846 74.2751 108.198C74.2084 107.731 74.1097 107.326 74.0111 106.985L74.4564 106.923ZM74.9151 106.859C75.0151 106.845 75.1151 106.853 75.2177 106.85L75.2724 109.913C75.1737 109.909 75.0737 109.905 74.9751 109.901C74.9671 109.371 74.9377 108.794 74.8777 108.178C74.8324 107.722 74.7751 107.29 74.7111 106.889L74.9151 106.859ZM76.8311 110.351C77.0817 110.359 77.2817 110.601 77.2857 110.899L77.3137 112.686C77.3191 113.003 77.1044 113.262 76.8404 113.258L75.7684 113.246C75.2737 113.239 74.8697 112.77 74.8497 112.178L74.8097 110.891C74.7991 110.567 75.0191 110.301 75.2884 110.309L76.8311 110.351ZM76.0791 106.955C76.0537 107.398 76.0391 107.871 76.0391 108.37C76.0404 108.93 76.0591 109.455 76.0924 109.945L75.6284 109.927L75.5324 106.849C75.7177 106.867 75.8991 106.901 76.0791 106.955V106.955ZM76.3991 108.298C76.4137 107.866 76.4431 107.459 76.4804 107.082C76.6564 107.135 76.8324 107.191 77.0057 107.245C76.9297 107.602 76.8591 108.021 76.8204 108.494C76.7751 109.061 76.7817 109.565 76.8124 109.983C76.6804 109.973 76.5497 109.963 76.4191 109.955C76.3897 109.453 76.3804 108.898 76.3991 108.298V108.298ZM77.4191 119.822C77.4244 120.138 77.2111 120.397 76.9457 120.394L75.4044 120.375C75.1497 120.371 74.9431 120.126 74.9417 119.822L74.8964 114.81C74.8911 114.186 75.3164 113.679 75.8364 113.685L76.8751 113.697C77.1271 113.701 77.3324 113.946 77.3377 114.247L77.4191 119.822ZM77.8951 110.382L78.0284 120.405L77.7297 120.401L77.6244 110.374L77.8951 110.382ZM77.1364 108.573C77.1657 108.099 77.2284 107.682 77.3004 107.339L77.7071 107.463C77.6537 107.81 77.6071 108.182 77.5711 108.578C77.5244 109.085 77.5031 109.559 77.4991 109.997C77.3884 109.993 77.2777 109.989 77.1684 109.985C77.1284 109.595 77.1057 109.117 77.1364 108.573V108.573ZM77.7391 107.077L76.8791 106.787L76.1977 106.579C76.1751 106.573 76.1511 106.567 76.1284 106.565C75.4817 106.481 75.6084 106.497 74.9004 106.474L74.8217 106.481L73.3164 106.701C72.3964 106.818 72.3791 107.353 72.4991 108.678L72.6871 109.815L72.6831 110.235L72.5897 120.342V120.369L72.5857 120.775L72.5831 121.329L72.7337 121.774L72.8417 122.165L78.4231 122.23L78.4271 121.774L78.4284 121.674L78.3804 121.559L78.3857 120.989L78.2844 120.843L78.2671 120.409L78.1564 110.49C78.1551 110.426 78.1644 110.362 78.1817 110.301L78.5644 108.965C78.7924 108.169 78.4151 107.306 77.7391 107.077Z" fill="black"/>
<path fill-rule="evenodd" clip-rule="evenodd" d="M93.7068 110.533L93.4761 111.585C93.4148 111.583 93.3521 111.582 93.2921 111.579C93.2868 111.25 93.2961 110.873 93.3455 110.459C93.3815 110.15 93.4335 109.867 93.4895 109.614L93.4908 109.605C93.7521 109.799 93.8241 110.153 93.7068 110.533ZM93.6241 120.759L88.5895 120.706L88.5121 120.583L93.5095 120.635L93.6241 120.759ZM93.7041 121.235L93.7601 121.333L88.5841 121.277L88.4815 121.181L93.7041 121.235ZM88.6508 109.182C88.6761 109.174 88.7055 109.173 88.7428 109.187C88.8255 109.442 88.9028 109.753 88.9521 110.115C89.0188 110.639 88.9975 111.091 88.9548 111.434L88.6641 111.423L88.4988 110.106C88.4935 110.057 88.4228 109.262 88.6508 109.182V109.182ZM89.4348 109.079C89.5135 109.361 89.5881 109.693 89.6348 110.071C89.7001 110.609 89.6895 111.082 89.6548 111.457C89.5228 111.453 89.3908 111.449 89.2575 111.445C89.3055 111.119 89.3401 110.665 89.2668 110.13C89.2121 109.727 89.1121 109.39 89.0148 109.133L89.4348 109.079ZM88.6761 113.847L88.6921 112.249C88.6948 111.987 88.8988 111.779 89.1428 111.785L89.6441 111.798C89.8761 111.803 90.0641 112.002 90.0721 112.249L90.1108 113.358C90.1295 113.889 89.7281 114.329 89.2295 114.323L89.1095 114.322C88.8668 114.319 88.6735 114.107 88.6761 113.847ZM89.1068 114.602L89.2935 114.605C89.7708 114.61 90.1561 115.021 90.1575 115.529L90.1681 119.763C90.1695 120.025 89.9695 120.235 89.7241 120.233L89.0481 120.227C88.8041 120.223 88.6095 120.011 88.6135 119.753L88.6628 115.066C88.6655 114.806 88.8628 114.599 89.1068 114.602V114.602ZM90.0935 108.999C90.1735 109.305 90.2441 109.659 90.2895 110.058C90.3521 110.599 90.3508 111.081 90.3241 111.479C90.2161 111.477 90.1055 111.473 89.9961 111.469C90.0161 111.087 90.0108 110.606 89.9228 110.063C89.8601 109.674 89.7695 109.335 89.6775 109.051L90.0935 108.999ZM90.5241 108.946C90.6188 108.934 90.7135 108.939 90.8081 108.938L90.8601 111.498C90.7668 111.495 90.6748 111.493 90.5815 111.489C90.5735 111.046 90.5455 110.562 90.4895 110.049C90.4481 109.666 90.3935 109.305 90.3335 108.969L90.5241 108.946ZM92.3255 111.866C92.5601 111.87 92.7481 112.073 92.7535 112.325L92.7775 113.818C92.7828 114.082 92.5815 114.298 92.3335 114.295L91.3268 114.285C90.8615 114.281 90.4815 113.889 90.4641 113.394L90.4268 112.315C90.4161 112.046 90.6228 111.823 90.8761 111.83L92.3255 111.866ZM91.6188 109.026C91.5948 109.395 91.5801 109.789 91.5801 110.209C91.5815 110.675 91.6001 111.115 91.6308 111.523L91.1948 111.509L91.1041 108.937C91.2775 108.95 91.4495 108.979 91.6188 109.026V109.026ZM91.9175 110.149C91.9321 109.786 91.9588 109.447 91.9948 109.13C92.1601 109.175 92.3255 109.222 92.4881 109.267C92.4161 109.563 92.3508 109.915 92.3135 110.311C92.2708 110.785 92.2788 111.206 92.3055 111.557C92.1815 111.549 92.0615 111.542 91.9375 111.534C91.9108 111.114 91.9001 110.649 91.9175 110.149V110.149ZM92.8775 119.783C92.8828 120.049 92.6801 120.265 92.4335 120.262L90.9841 120.246C90.7455 120.243 90.5535 120.038 90.5508 119.783L90.5081 115.594C90.5041 115.071 90.9015 114.647 91.3908 114.653L92.3655 114.665C92.6028 114.666 92.7948 114.87 92.7988 115.122L92.8775 119.783ZM93.3241 111.891L93.4495 120.273L93.1695 120.27L93.0695 111.885L93.3241 111.891ZM92.6121 110.378C92.6375 109.981 92.6988 109.633 92.7655 109.343C92.8935 109.379 93.0188 109.415 93.1468 109.45C93.0961 109.741 93.0535 110.051 93.0175 110.382C92.9761 110.806 92.9561 111.202 92.9521 111.567C92.8468 111.565 92.7441 111.561 92.6415 111.558C92.6028 111.233 92.5815 110.833 92.6121 110.378V110.378ZM93.1775 109.126L92.3681 108.885L91.7295 108.71C91.7095 108.705 91.6855 108.701 91.6655 108.699C91.0575 108.627 91.1761 108.639 90.5121 108.622L90.4375 108.627L89.0228 108.813C88.1601 108.91 88.1428 109.357 88.2561 110.466L88.4321 111.417L88.4295 111.767L88.3415 120.218V120.243L88.3375 120.582L88.3361 121.046L88.4775 121.417L88.5775 121.742L93.8188 121.798L93.8228 121.417L93.8241 121.333L93.7801 121.235L93.7841 120.761L93.6895 120.637L93.6721 120.275L93.5681 111.982C93.5681 111.927 93.5761 111.873 93.5921 111.823L93.9521 110.706C94.1668 110.039 93.8135 109.318 93.1775 109.126" fill="black"/>
<path fill-rule="evenodd" clip-rule="evenodd" d="M14.6691 99.9077L9.37441 100.104L9.43041 100.008L14.7731 99.809L14.6691 99.9077ZM9.41041 90.369L9.14508 89.325C9.01841 88.9464 9.08108 88.5944 9.34241 88.3917L9.34374 88.401L9.59841 90.3584L9.41041 90.369ZM10.0784 88.113L10.2637 90.3197L9.94641 90.3357L9.69174 88.229L10.0784 88.113ZM10.8611 87.8784L10.9824 90.2757L10.6064 90.3077L10.3597 88.0277L10.8611 87.8784ZM12.2491 90.5317C12.4144 90.5224 12.5531 90.661 12.5517 90.833L12.5371 92.2517C12.5331 92.6557 12.2251 92.985 11.8344 92.9984L10.4824 93.0477C10.3211 93.0544 10.1864 92.921 10.1851 92.753L10.1677 90.925C10.1677 90.765 10.2864 90.6317 10.4411 90.6237L12.2491 90.5317ZM11.2437 87.7624C11.4157 87.713 11.5904 87.6797 11.7677 87.6584L11.7411 90.2304L11.2957 90.257L11.1637 87.7877L11.2437 87.7624ZM12.3611 87.653L12.5584 87.6704L12.3691 90.193L12.0837 90.2104L12.0704 87.653C12.1677 87.653 12.2637 87.6424 12.3611 87.653ZM12.3451 98.9384L10.5371 99.0064C10.3757 99.0117 10.2397 98.8784 10.2397 98.7104L10.1944 93.7144C10.1917 93.5544 10.3144 93.421 10.4704 93.417L11.7904 93.3677C12.1984 93.3517 12.5411 93.689 12.5477 94.1144L12.6211 98.637C12.6237 98.7997 12.5011 98.933 12.3451 98.9384ZM12.8024 87.6944L13.2304 87.733L12.9677 90.157L12.6317 90.1757L12.8024 87.6944ZM13.4797 87.757L13.9104 87.797L13.7211 90.1117L13.3157 90.137L13.4797 87.757ZM14.3157 90.729L14.3811 92.4957C14.3904 92.7544 14.1971 92.9704 13.9491 92.9797L13.6571 92.9904C13.2397 93.0064 12.8931 92.657 12.8971 92.2224L12.9117 90.7784C12.9131 90.621 13.0317 90.4917 13.1837 90.4837L14.0131 90.441C14.1731 90.4344 14.3091 90.561 14.3157 90.729V90.729ZM14.1891 87.845C14.5424 87.9664 14.4957 88.201 14.4637 88.7557L14.3291 90.0757L14.0317 90.0944L14.1891 87.845ZM14.6064 98.557C14.6117 98.721 14.4877 98.8597 14.3304 98.8664L13.3104 98.9037C13.1504 98.909 13.0171 98.777 13.0117 98.6117L12.9051 94.0477C12.8944 93.633 13.2077 93.2864 13.6064 93.2717L13.9584 93.2597C14.2077 93.2504 14.4171 93.4517 14.4251 93.7117L14.6064 98.557ZM9.57441 90.6677L9.83308 90.657L9.95174 99.029L9.66641 99.0397L9.57441 90.6677ZM9.61308 99.4024L14.7251 99.213L14.6477 99.337L9.50108 99.529L9.61308 99.4024ZM14.8904 98.869V98.845L14.5771 90.413L14.5651 90.0624L14.7211 89.1077C14.8077 87.9984 14.7784 87.553 13.8917 87.4797L12.4411 87.333L12.3637 87.329C11.6824 87.3664 11.8091 87.3504 11.1744 87.4397C11.1611 87.4424 11.1451 87.445 11.1331 87.4477L10.4731 87.6424L9.48774 87.9584C8.93174 88.1397 8.63574 88.7677 8.83974 89.3357L9.30641 90.6357C9.31308 90.669 9.31974 90.7024 9.32508 90.7357L9.43708 99.0464L9.42908 99.4104L9.33574 99.5344L9.35308 100.01L9.31041 100.106L9.31308 100.19L9.32774 100.57L14.6864 100.373L14.7811 100.045L14.9171 99.669L14.9024 99.2064L14.8904 98.869Z" fill="black"/>
<path fill-rule="evenodd" clip-rule="evenodd" d="M45.8071 81.3309L45.8084 81.3442L46.1684 83.9962L45.9138 84.0136L45.5471 82.5989C45.3698 82.0869 45.4538 81.6056 45.8071 81.3309ZM46.8031 80.9469L47.0711 83.9376L46.6418 83.9669L46.2804 81.1069L46.8031 80.9469ZM47.8631 80.6216L48.0458 83.8736L47.5351 83.9202L47.1844 80.8296L47.8631 80.6216ZM49.7684 84.2122C49.9924 84.1989 50.1818 84.3869 50.1804 84.6202L50.1698 86.5429C50.1671 87.0922 49.7511 87.5416 49.2231 87.5629L47.3898 87.6416C47.1684 87.6496 46.9844 87.4696 46.9804 87.2429L46.9458 84.7616C46.9431 84.5429 47.1044 84.3629 47.3124 84.3522L49.7684 84.2122ZM48.3831 80.4629C48.6151 80.3922 48.8524 80.3469 49.0911 80.3189L49.0764 83.8056L48.4724 83.8469L48.2724 80.4962L48.3831 80.4629ZM49.8964 80.3042L50.1658 80.3282L49.9271 83.7509L49.5404 83.7776L49.5018 80.3069C49.6338 80.3056 49.7658 80.2936 49.8964 80.3042ZM50.3311 95.2082C50.3351 95.4296 50.1698 95.6122 49.9591 95.6216L47.5058 95.7256C47.2858 95.7349 47.1031 95.5536 47.0991 95.3256L47.0018 88.5496C46.9991 88.3309 47.1631 88.1496 47.3724 88.1402L49.1658 88.0642C49.7204 88.0402 50.1871 88.4949 50.1991 89.0736L50.3311 95.2082ZM50.4978 80.3589L51.0791 80.4096L50.7378 83.6989L50.2818 83.7282L50.4978 80.3589ZM51.4164 80.4389L52.0004 80.4896L51.7618 83.6322L51.2111 83.6682L51.4164 80.4389ZM52.5724 84.4656L52.6751 86.8616C52.6898 87.2136 52.4284 87.5082 52.0911 87.5229L51.6938 87.5389C51.1298 87.5629 50.6578 87.0909 50.6604 86.5029L50.6684 84.5416C50.6684 84.3282 50.8284 84.1522 51.0338 84.1402L52.1618 84.0776C52.3791 84.0642 52.5631 84.2402 52.5724 84.4656V84.4656ZM52.3804 80.5522C52.8591 80.7149 52.7978 81.0336 52.7578 81.7856L52.5858 83.5789L52.1831 83.6056L52.3804 80.5522ZM53.0231 95.0842C53.0338 95.3082 52.8671 95.4976 52.6524 95.5069L51.2684 95.5669C51.0511 95.5762 50.8684 95.3989 50.8618 95.1722L50.6831 88.9776C50.6671 88.4149 51.0871 87.9456 51.6298 87.9216L52.1084 87.9016C52.4444 87.8882 52.7284 88.1602 52.7444 88.5109L53.0231 95.0842ZM46.1378 84.4176L46.4898 84.3989L46.7124 95.7589L46.3244 95.7749L46.1378 84.4176ZM53.0884 96.1456L46.1044 96.4416L46.2551 96.2709L53.1898 95.9749L53.0884 96.1456ZM53.1204 96.9189L45.9364 97.2242L46.0111 97.0909L53.2591 96.7842L53.1204 96.9189ZM45.7751 84.3762C45.7831 84.4216 45.7924 84.4656 45.8018 84.5109L46.0138 95.7896L46.0044 96.2802L45.8791 96.4522L45.9071 97.0949L45.8484 97.2282L45.8538 97.3416L45.8751 97.8589L53.1458 97.5482L53.2751 97.1016L53.4551 96.5936L53.4324 95.9669L53.4138 95.5069L53.4111 95.4749L52.9271 84.0336L52.9058 83.5576L53.1111 82.2629C53.2218 80.7549 53.1764 80.1509 51.9751 80.0576L50.0044 79.8709L49.9004 79.8656C48.9738 79.9202 49.1471 79.8989 48.2858 80.0256C48.2684 80.0269 48.2471 80.0309 48.2298 80.0362L47.3351 80.3029L46.0018 80.7416C45.2471 80.9896 44.8498 81.8456 45.1311 82.6149L45.7751 84.3762Z" fill="black"/>
<path fill-rule="evenodd" clip-rule="evenodd" d="M31.1899 95.8987C31.1965 95.9227 31.2019 95.9307 31.2045 95.9227C31.1992 95.896 31.1925 95.8733 31.1899 95.8987Z" fill="black"/>
<path fill-rule="evenodd" clip-rule="evenodd" d="M31.3077 89.0848C31.3131 89.1101 31.3171 89.1181 31.3211 89.1088C31.3144 89.0834 31.3091 89.0608 31.3077 89.0848Z" fill="black"/>
<path fill-rule="evenodd" clip-rule="evenodd" d="M31.0343 102.624C31.0436 102.628 31.0476 102.616 31.0529 102.604L31.0129 102.605L31.0343 102.624Z" fill="black"/>
<path fill-rule="evenodd" clip-rule="evenodd" d="M30.964 102.611L30.9774 102.607H30.9694L30.964 102.611Z" fill="black"/>
<path fill-rule="evenodd" clip-rule="evenodd" d="M30.9647 102.611L30.9433 102.62L30.9647 102.635L30.9633 102.612L30.9647 102.611Z" fill="black"/>
<path fill-rule="evenodd" clip-rule="evenodd" d="M28.1418 102.491L28.1484 102.522H28.1498L28.1458 102.49L28.1418 102.491Z" fill="black"/>
<path fill-rule="evenodd" clip-rule="evenodd" d="M31.0428 102.11L31.0521 102.103H31.0468L31.0428 102.11Z" fill="black"/>
<path fill-rule="evenodd" clip-rule="evenodd" d="M31.0422 102.11L31.0262 102.119L31.0435 102.132L31.0422 102.11Z" fill="black"/>
<path d="M99.2524 36.0386L98.5764 36.3493L98.5684 37.26L98.5431 37.2866L98.5684 37.384L98.1844 83.548L97.7657 83.3893L66.0857 72.9733L66.2791 11.616L96.8564 36.684L66.2804 10.988V10.52L96.8564 35.5866L66.2831 9.89198L66.2857 9.11198L96.7844 34.116L66.2871 8.48531L66.2911 7.37731L96.7844 32.6173L66.2924 6.75064L66.3097 1.64931L66.9724 2.23731C67.9924 3.14265 69.0257 4.05864 70.0724 4.98131L71.6497 6.37331L72.0457 6.72264L72.2444 6.89731L72.3444 6.98531L72.3924 7.0293C71.7631 7.0533 73.2671 7.01064 73.1164 7.00931L73.1257 6.99731L73.1524 6.97331L73.7458 6.37864L73.9911 6.59331L74.8017 7.29198L76.4337 8.69865L78.0737 10.1106L78.8964 10.82L79.3084 11.176L79.5137 11.3533L79.6177 11.4426L79.6431 11.464L79.6564 11.476C81.0431 11.4253 80.0497 11.4546 80.3604 11.44L80.4084 11.392L80.7231 11.0773L81.2364 11.5906L82.7884 13.136L85.8991 16.2333L86.6764 17.0093L86.9311 17.2626V17.3226V17.596L86.9337 18.1466V18.42V18.5573V18.5733C86.8924 18.5013 87.2551 19.2826 87.1097 18.956L87.1338 18.9786L87.1871 19.024L88.0191 19.7386L91.3351 22.5933L92.9804 24.0133L93.0951 24.112L93.0137 24.452L92.8871 24.9786L92.8257 25.2413L92.8084 25.3066L92.8004 25.34C92.6684 24.9266 92.9764 25.9226 92.9484 25.824L92.9617 25.8346L93.0618 25.9253C94.1351 26.8866 95.2004 27.844 96.2591 28.7933L97.8364 30.2133L97.9911 30.352L97.9604 30.7106L97.8724 31.7573L97.7857 32.8053L97.7644 33.0693L97.7577 33.1346V33.152C97.7777 33.2226 97.7577 33.1546 97.7511 33.132C97.7577 33.156 97.7831 33.2453 97.8537 33.4933L97.8564 33.4973L97.8604 33.504L97.8804 33.5306L97.9577 33.6373L98.2724 34.0653C98.5244 34.4653 98.9031 34.864 99.2658 35.2266L99.2524 36.0386ZM98.1804 83.9226L66.0831 73.636V73.5826L98.1844 83.5626L98.1804 83.9226ZM97.8591 122.621L97.8044 125.985L97.8071 128.033V128.769L96.1817 128.972C94.0071 129.243 91.8231 129.512 89.6244 129.785C85.2257 130.329 80.7764 130.88 76.2591 131.435C73.8671 131.731 71.5471 132.023 69.2871 132.311C68.1577 132.455 67.0444 132.597 65.9417 132.739C65.9271 132.74 65.9124 132.74 65.8964 132.74L65.9097 129.003L93.6684 126.484L65.9124 127.748L65.9911 103.292L97.8924 107.145L65.9924 102.661L65.9937 102.223L97.8924 106.127L65.9964 101.599L65.9991 100.791L97.8924 105.136L66.0004 100.077L66.0817 74.0413L98.1804 83.9266L97.8591 122.621ZM62.7257 132.679C58.3871 132.564 54.2364 132.463 50.1791 132.353C44.2511 132.177 37.9044 131.928 33.0911 131.776C33.0604 131.775 33.0311 131.773 33.0017 131.773L33.0164 114.997L33.0297 115.049C33.0257 115.013 33.0204 114.973 33.0164 114.936L33.0191 111.82C33.3257 111.195 33.6377 110.429 33.8791 109.537C33.9604 109.24 34.0257 108.955 34.0804 108.68C34.1511 108.323 33.9617 107.967 33.6204 107.839C31.8724 107.18 28.3764 106.223 24.8631 107.684C24.3031 107.916 23.7977 108.188 23.3404 108.48C23.1137 108.624 22.9911 108.879 23.0057 109.148C23.0191 109.384 23.0591 109.659 23.1204 109.949C23.1191 109.951 23.1137 109.943 23.1137 109.944L23.8644 129.872L23.8631 129.877C23.8644 129.876 23.8644 129.876 23.8644 129.875L23.9257 131.496L23.8497 131.493C19.9591 131.38 16.2937 131.281 12.7271 131.189C16.7737 131.309 20.1844 131.407 23.8484 131.516C23.8484 131.527 23.8497 131.537 23.8484 131.548C23.8377 131.552 23.8257 131.555 23.8164 131.557C23.8084 131.576 23.8084 131.597 23.8057 131.619C22.5884 131.556 21.2617 131.479 20.2991 131.46C17.0897 131.356 14.1484 131.301 10.7097 131.215C9.24575 131.187 9.41907 131.105 8.68707 131.092C6.34174 131.027 4.26708 130.991 2.40308 130.959C1.93774 130.952 1.48575 130.944 1.04441 130.935L0.393748 130.921H0.369741V130.716C0.368407 130.495 0.36974 130.285 0.371073 130.069L0.656413 109.404L65.5897 103.347L65.6431 127.748H36.6004L65.6457 129.001L65.6537 132.74C64.7471 132.748 63.6777 132.695 62.7257 132.679V132.679ZM33.0017 131.835V131.788C34.8017 131.849 34.3657 131.853 33.0017 131.835ZM32.2177 111.073C32.3191 110.572 32.4737 109.987 32.7351 109.347C32.9217 108.888 33.1257 108.499 33.3271 108.153C33.5884 108.315 33.7324 108.619 33.6671 108.931C33.6124 109.185 33.5444 109.456 33.4577 109.736C33.2444 110.44 33.0137 110.96 32.7617 111.425C32.6257 111.327 32.4417 111.207 32.2177 111.073V111.073ZM31.0324 108.855C31.1897 108.365 31.3751 107.953 31.5551 107.607C32.0137 107.704 32.4231 107.817 32.7791 107.933C32.5684 108.223 32.3457 108.564 32.1431 108.989C31.8257 109.655 31.6711 110.264 31.5897 110.741C31.3257 110.613 31.0297 110.493 30.7057 110.383C30.7564 109.945 30.8471 109.428 31.0324 108.855V108.855ZM30.4711 108.512C30.2204 109.156 30.1137 109.74 30.0671 110.199C29.8364 110.143 29.6004 110.093 29.3484 110.059C29.3817 109.62 29.4404 109.136 29.5497 108.607C29.6417 108.159 29.7537 107.756 29.8711 107.391C30.2591 107.412 30.6257 107.451 30.9737 107.505C30.8017 107.787 30.6257 108.115 30.4711 108.512V108.512ZM28.0671 110.012C28.1124 109.548 28.1511 109.073 28.1791 108.579C28.2017 108.187 28.2164 107.805 28.2257 107.431C28.6004 107.392 28.9604 107.376 29.3111 107.376C29.2137 107.736 29.1177 108.111 29.0351 108.512C28.9244 109.039 28.8444 109.536 28.7831 110.007C28.5524 109.993 28.3124 110 28.0671 110.012ZM26.5417 108.769C26.4857 108.408 26.4044 108.088 26.3177 107.807C26.6484 107.708 26.9964 107.621 27.3644 107.552C27.4417 107.539 27.5124 107.535 27.5884 107.521C27.5991 107.844 27.6044 108.177 27.5884 108.539C27.5657 109.091 27.5111 109.595 27.4417 110.053C27.1497 110.095 26.8764 110.155 26.6137 110.224C26.6364 109.817 26.6284 109.325 26.5417 108.769V108.769ZM24.8804 108.351C25.1964 108.205 25.5457 108.068 25.9217 107.94C26.0057 108.213 26.0844 108.533 26.1231 108.912C26.1831 109.512 26.1284 110.023 26.0564 110.397C25.8431 110.475 25.6444 110.555 25.4577 110.643C25.4444 110.277 25.3977 109.84 25.2591 109.34C25.1497 108.949 25.0137 108.623 24.8804 108.351V108.351ZM32.7244 112.287C32.1911 111.887 31.2324 111.285 29.9017 111.065C27.3057 110.639 25.3204 111.996 24.8751 112.316V112.609C25.2337 112.317 26.8751 111.068 29.1964 111.203V112.671C28.5111 112.836 27.7817 113.04 27.0151 113.299C26.4271 113.496 25.8751 113.705 25.3604 113.919C25.3524 113.935 25.3044 114.035 25.3457 114.148C25.3937 114.276 25.5177 114.316 25.5311 114.32C26.1164 114.108 26.7297 113.864 27.3644 113.584C28.0204 113.295 28.6284 112.996 29.1964 112.7V115.273C28.5111 115.44 27.7817 115.643 27.0151 115.901C26.4271 116.099 25.8751 116.309 25.3604 116.523C25.3524 116.539 25.3044 116.637 25.3457 116.751C25.3937 116.879 25.5177 116.92 25.5311 116.925C26.1164 116.711 26.7297 116.467 27.3644 116.187C28.0204 115.897 28.6284 115.599 29.1964 115.303V117.784C28.5017 117.953 27.7617 118.16 26.9831 118.423C26.3951 118.619 25.8431 118.829 25.3284 119.041C25.3204 119.059 25.2724 119.156 25.3137 119.271C25.3617 119.4 25.4844 119.44 25.4991 119.444C26.0844 119.232 26.6964 118.987 27.3337 118.707C28.0017 118.413 28.6204 118.109 29.1964 117.807V120.519C28.5017 120.687 27.7617 120.893 26.9831 121.156C26.3951 121.355 25.8431 121.564 25.3284 121.776C25.3204 121.793 25.2724 121.892 25.3137 122.005C25.3617 122.135 25.4844 122.175 25.4991 122.179C26.0844 121.965 26.6964 121.72 27.3337 121.44C28.0017 121.148 28.6204 120.844 29.1964 120.54V123.008C28.5111 123.175 27.7817 123.377 27.0151 123.637C26.4271 123.833 25.8751 124.044 25.3604 124.257C25.3524 124.273 25.3044 124.372 25.3457 124.485C25.3937 124.615 25.5177 124.655 25.5311 124.659C26.1164 124.447 26.7297 124.203 27.3644 123.923C28.0204 123.632 28.6284 123.335 29.1964 123.037V125.547C28.5057 125.715 27.7711 125.921 26.9977 126.181C26.4084 126.377 25.8564 126.589 25.3417 126.801C25.3337 126.817 25.2857 126.916 25.3284 127.029C25.3751 127.159 25.4991 127.2 25.5124 127.204C26.0977 126.991 26.7111 126.747 27.3471 126.467C28.0084 126.173 28.6244 125.872 29.1964 125.572V127.844C28.5417 128.007 27.8511 128.2 27.1244 128.444C26.5364 128.643 25.9844 128.853 25.4697 129.065C25.4617 129.081 25.4137 129.18 25.4551 129.293C25.5031 129.423 25.6271 129.463 25.6417 129.468C26.2244 129.255 26.8377 129.009 27.4737 128.731C28.0897 128.459 28.6591 128.18 29.1964 127.9L29.4244 127.841V127.785V111.209C29.8137 111.247 30.1724 111.321 30.5031 111.417L29.9764 128.069L30.4724 128.281C30.7751 128.467 31.0924 128.652 31.4417 128.836C31.7711 129.008 32.1751 129.197 32.4911 129.336L32.4804 130.101C31.2191 130.277 29.7631 130.403 28.1431 130.396C26.6391 130.391 25.2804 130.273 24.0884 130.111C24.0377 126.256 24.0204 121.772 24.0417 118.047C24.0537 115.911 24.0791 113.792 24.1137 111.691C24.7511 111.227 26.1471 110.369 28.1151 110.277C30.3751 110.175 32.0324 111.152 32.7337 111.645L32.7244 112.287ZM32.7071 113.559C32.4177 113.421 32.1231 113.281 31.8004 113.149C31.3777 112.973 30.9751 112.827 30.5884 112.697L30.5951 111.44C31.6364 111.757 32.3617 112.281 32.7204 112.572L32.7071 113.559ZM32.6711 116.119C32.3777 115.977 32.0764 115.835 31.7457 115.7C31.3657 115.54 31.0057 115.413 30.6537 115.292C30.6777 115.291 30.6991 115.287 30.6777 115.277L30.5751 115.245L30.5884 112.712C30.9617 112.953 31.3724 113.196 31.8217 113.431C32.1257 113.591 32.4177 113.727 32.7031 113.855L32.6711 116.119ZM30.5751 115.261L30.5951 115.264L30.6017 115.272C30.5937 115.269 30.5831 115.265 30.5751 115.261ZM32.6351 118.812C32.3417 118.672 32.0444 118.532 31.7164 118.396C31.3351 118.239 30.9751 118.109 30.6231 117.988C30.6484 117.987 30.6697 117.983 30.6484 117.976L30.5591 117.948L30.5737 115.288C30.6057 115.308 30.6404 115.328 30.6711 115.348L30.6684 115.353L30.6791 115.359L30.6764 115.351C31.0137 115.563 31.3724 115.775 31.7684 115.983C32.0791 116.144 32.3777 116.284 32.6684 116.415L32.6351 118.812ZM30.5591 117.965V117.961L30.5657 117.963L30.5737 117.971C30.5697 117.969 30.5644 117.967 30.5591 117.965ZM32.6004 121.381C32.3084 121.243 32.0137 121.103 31.6884 120.969C31.3084 120.812 30.9484 120.683 30.5964 120.561C30.6204 120.56 30.6417 120.556 30.6204 120.547L30.5457 120.525L30.5591 118.008L30.5724 118.024V118.025L30.5737 118.027L30.5884 118.025L30.6231 118.041L30.5724 118.009V118.008L30.5591 118.005V117.993C30.5857 118.011 30.6151 118.028 30.6417 118.044L30.6377 118.051L30.6497 118.056L30.6471 118.048C30.9831 118.26 31.3431 118.472 31.7391 118.679C32.0484 118.84 32.3417 118.98 32.6311 119.108L32.6004 121.381ZM32.5657 123.819C32.2777 123.681 31.9844 123.543 31.6617 123.411C31.2884 123.256 30.9364 123.129 30.5897 123.009C30.5911 123.008 30.6004 123.007 30.5937 123.004L30.5324 122.985L30.5457 120.599L30.5604 120.597L30.5951 120.615L30.5457 120.583V120.576C30.5671 120.591 30.5911 120.603 30.6137 120.617L30.6111 120.623L30.6204 120.628L30.6191 120.621C30.9551 120.832 31.3151 121.044 31.7111 121.253C32.0164 121.412 32.3097 121.549 32.5951 121.677L32.5657 123.819ZM32.5311 126.349C32.2284 126.204 31.9164 126.057 31.5751 125.917C31.2244 125.771 30.8924 125.655 30.5657 125.54L30.5564 125.537C30.5444 125.533 30.5311 125.528 30.5191 125.524L30.5324 123.053H30.5337L30.5671 123.071L30.5324 123.048V123.024C30.8857 123.248 31.2644 123.473 31.6831 123.693C31.9884 123.851 32.2777 123.987 32.5617 124.115L32.5311 126.349ZM32.4951 129.035C32.1644 128.875 31.7711 128.697 31.4191 128.553C31.0511 128.403 30.7777 128.299 30.5257 128.208L30.5244 128.205L30.5231 128.207C30.5164 128.205 30.5097 128.204 30.5044 128.201L30.5191 125.596L30.5404 125.608L30.5191 125.595V125.577C30.5884 125.62 30.6591 125.664 30.7324 125.708L30.7297 125.711L30.7337 125.712H30.7351L30.7417 125.713C31.0111 125.876 31.2924 126.039 31.5977 126.2C31.9191 126.368 32.2271 126.513 32.5271 126.648L32.4951 129.035ZM32.4631 131.332C31.4617 131.493 30.3017 131.616 29.0124 131.651L25.9551 131.557C25.2884 131.496 24.6737 131.413 24.1057 131.319C24.1017 131.049 24.0977 130.785 24.0937 130.509C25.2671 130.727 26.6964 130.9 28.3364 130.895C29.9297 130.892 31.3244 130.721 32.4751 130.508L32.4631 131.332ZM24.1151 131.969V131.965H24.1324C24.1351 131.965 24.1364 131.968 24.1377 131.971L24.1151 131.969ZM24.0764 131.965H24.0871L24.0884 131.967L24.0764 131.965ZM23.6231 109.628C23.5484 109.307 23.6871 108.977 23.9724 108.812C24.1311 108.719 24.3137 108.625 24.4977 108.533C24.6017 108.823 24.7017 109.175 24.7644 109.587C24.8471 110.129 24.8364 110.603 24.8004 110.984C24.5257 111.148 24.2991 111.305 24.1151 111.444L23.6231 109.628ZM23.8737 131.539C23.8737 131.532 23.8737 131.524 23.8751 131.516L23.9271 131.517V131.524C23.9084 131.529 23.8897 131.533 23.8737 131.539ZM23.8351 131.953C23.8617 131.955 23.8817 131.956 23.9057 131.957L23.8351 131.953ZM0.663076 108.897C0.675076 108.899 0.685744 108.9 0.696411 108.9L0.663076 108.904V108.897ZM0.775075 108.331L65.5884 102.284L65.5897 103.164L65.5764 102.651L0.768412 108.893L0.775075 108.331ZM0.788411 107.261L65.5844 100.744L65.5871 101.591L0.781748 107.831L0.788411 107.261ZM25.6591 85.548C25.5417 85.5853 25.4244 85.6213 25.3124 85.6586L25.2991 85.6546V85.6626C25.2857 85.668 25.2711 85.672 25.2564 85.6773C25.2991 85.3266 25.3897 85.0026 25.5071 84.6973L25.6591 85.548ZM29.6737 92.2906C29.6737 92.0013 29.9084 91.7653 30.1977 91.7653H31.3271C31.2377 95.6426 31.1484 99.5186 31.0577 103.395L29.6737 103.479V92.2906ZM31.1044 84.7413L31.2404 84.232C31.3217 84.396 31.3924 84.5653 31.4524 84.744C31.3404 84.7413 31.2217 84.7413 31.1044 84.7413V84.7413ZM30.2484 84.7573L30.5324 83.24C30.6471 83.3546 30.7551 83.4786 30.8564 83.6093L30.5391 84.7466C30.4444 84.7493 30.3471 84.7533 30.2484 84.7573V84.7573ZM29.4297 84.812L29.7631 82.6706C29.8777 82.7306 29.9911 82.7986 30.0991 82.8733L29.6924 84.7893C29.6057 84.796 29.5177 84.804 29.4297 84.812ZM28.5804 84.9066L28.7151 82.3906C28.7724 82.3946 28.8311 82.384 28.8884 82.392C29.0457 82.412 29.2004 82.4493 29.3511 82.4986L28.9364 84.86C28.8204 84.872 28.6991 84.8893 28.5804 84.9066V84.9066ZM27.8324 85.0226V82.488C27.9711 82.4493 28.1111 82.4093 28.2511 82.392L28.0724 84.9786C27.9897 84.9906 27.9124 85.008 27.8324 85.0226V85.0226ZM27.1217 82.7746C27.2031 82.7293 27.2884 82.6986 27.3724 82.6586L27.4884 85.0853C27.4097 85.1 27.3297 85.116 27.2524 85.1333L27.1217 82.7746ZM26.3631 83.368C26.4711 83.2586 26.5831 83.1586 26.7017 83.0666L26.8244 85.2306C26.7764 85.2426 26.7244 85.2533 26.6764 85.264L26.3631 83.368ZM27.6111 86.5L25.9057 85.876C26.6164 85.6413 27.4724 85.42 28.4604 85.288C29.4671 85.1546 30.3577 85.1506 31.1071 85.196L31.1577 85.4413C30.6151 85.5 29.9871 85.608 29.2951 85.8186C28.6484 86.0146 28.0617 86.2693 27.6111 86.5V86.5ZM28.7151 91.3626L27.7391 91.3533L27.8084 86.6626C28.1817 86.4493 28.6617 86.22 29.2457 86.0346V90.836C29.2457 91.128 29.0057 91.3653 28.7151 91.3626V91.3626ZM27.7324 91.7653H28.7191C29.0097 91.7653 29.2457 92.0013 29.2457 92.2906V103.503L27.5591 103.604L27.7324 91.7653ZM25.9791 88.0013L25.9991 86.58L27.6017 86.5813L27.5657 87.8266L25.9791 88.0013ZM25.9564 89.7093L25.9791 88.0266L27.5417 88.7106L27.5137 89.7146L25.9564 89.7093ZM25.8844 95.072L25.9084 93.2533L27.3937 93.9693L27.3724 94.7586L25.8844 95.072ZM25.8177 99.924L25.8377 98.5173L27.2431 99.3573L27.2284 99.9053L25.8177 99.924ZM25.7951 101.672L25.8177 99.976L27.2031 100.803L27.1897 101.285L25.7951 101.672ZM25.7791 102.897L25.7937 101.744L27.1657 102.143L27.1537 102.576L25.7791 102.897ZM25.7031 84.244C25.7844 84.0946 25.8764 83.9546 25.9737 83.82L26.1631 85.4013C26.0791 85.4253 25.9897 85.4466 25.9084 85.472L25.7031 84.244ZM25.7777 102.988L27.1297 103.437L27.1231 103.631L25.7671 103.711L25.7777 102.988ZM27.2937 97.5653L27.2684 98.4693L25.8377 98.4866L25.8844 95.092L27.3484 95.6133L27.3177 96.7186L25.8604 96.9V96.912L27.2937 97.5653ZM27.4444 92.184L27.4191 93.0946L25.9084 93.2306L25.9551 89.756L27.4884 90.6106L27.4684 91.3373L26.0164 91.5026V91.5146L27.4444 92.184ZM30.1977 91.3666C29.9084 91.3666 29.6737 91.132 29.6737 90.8413V85.9133C30.3777 85.736 31.0017 85.6813 31.4684 85.68C31.4244 87.5773 31.3804 89.476 31.3364 91.372V91.3666H30.1977ZM31.4444 85.3973L31.4751 85.396V85.412C31.3911 85.4186 31.3017 85.428 31.2137 85.436L31.2737 85.2066C31.3404 85.2106 31.4137 85.2133 31.4791 85.22C31.4764 85.2773 31.4764 85.3346 31.4751 85.3933H31.4417L31.4444 85.3973ZM0.841746 103.101L0.852407 100.767C0.85774 100.228 0.861742 99.6973 0.867076 99.176C0.963076 95.3866 1.03641 91.7373 1.11641 87.976L65.5271 74.0386L65.5831 100.048L31.4991 103.527V103.369L31.8564 84.744L31.9711 81.8853C31.0617 81.6893 30.1577 81.9133 28.3711 82.2093C26.7817 82.476 25.5657 82.7866 24.7937 83.2173C24.9351 84.0413 25.0764 84.8666 25.2191 85.6893H25.2177C25.2191 85.6946 25.2204 85.7 25.2217 85.704C25.2257 85.732 25.2311 85.7613 25.2351 85.788C25.2364 85.7853 25.2364 85.784 25.2377 85.7813C25.2591 85.884 25.2804 85.988 25.3017 86.0906L25.3951 104.149L0.796407 106.66L0.841746 103.101ZM1.12974 87.3826C1.13907 87.384 1.16574 87.38 1.18574 87.3773L1.12974 87.3893V87.3826ZM1.13508 87.0826L65.5257 73.5733V73.6266L1.22841 87.3693L1.12974 87.3613C1.13107 87.2666 1.13375 87.1746 1.13508 87.0826ZM1.22841 82.3973L1.36041 77.8693C1.41908 75.7613 1.48174 73.692 1.55108 71.6493L1.55507 44.3626L1.58708 42.0466C1.59241 41.892 1.58841 41.7413 1.59241 41.588L1.69375 34.3346H1.69241L1.70041 34.2066C1.68974 34.124 1.50307 34.028 1.48041 33.884C1.40174 33.532 1.72708 33.6226 1.79908 33.6226C3.03242 33.4773 4.02308 34.2466 5.13641 34.5506C6.34175 34.1226 7.26307 33.5733 8.35374 33.0746C10.4657 32.048 12.6497 30.9653 15.1084 29.7386C19.7231 27.4373 25.3057 24.632 33.1991 20.748C24.9711 24.7773 43.9977 15.116 54.6991 9.96531C56.7391 8.98531 58.8857 7.94264 61.1137 6.84931L62.8017 6.01998L63.6577 5.59731L64.0857 5.38531L64.1937 5.33198L64.2497 5.30531C64.7737 4.41597 64.3937 5.05065 64.5097 4.84798V4.83198L64.5084 4.80264L64.5004 4.56264L64.4657 3.59198L64.4617 3.47064L64.4591 3.40931C64.5857 3.69198 64.2884 3.00664 64.3137 3.07331L64.3031 3.06264L64.2817 3.04131L64.1111 2.86798L63.8777 2.63198L63.9951 2.51598L64.7017 1.81598L65.3697 1.15331L65.3817 6.73864L3.39508 36.768L65.3831 7.35997L65.3857 8.47731L3.39508 38.348L65.3871 9.09731L65.3884 9.83864L3.45375 39.356L65.3897 10.4826L65.3911 11.0426L3.62841 40.4786L65.3911 11.6626L65.5244 72.976L1.22841 86.5533V84.0186C1.16575 83.42 1.19775 82.876 1.22841 82.3973V82.3973ZM100.407 35.164L100.375 35.132L100.126 34.88C99.8231 34.548 99.3871 34.204 99.1951 33.8826L98.7737 33.312L98.6164 33.0973C98.6191 33.0253 98.6151 32.9213 98.6284 32.9173L98.7444 31.5066L98.8004 30.8026L98.8297 30.4506L98.8431 30.276L98.8497 30.1866C98.8791 30.2413 98.6271 29.6253 98.7244 29.8786L98.7111 29.8653L98.6764 29.836L96.5791 27.9546L94.4871 26.0773L93.9644 25.6093L93.7017 25.3746L93.6631 25.3386L93.9591 24.1026L93.9697 24.06L93.9764 24.0386C94.0764 24.3506 93.8431 23.5906 93.8591 23.664L93.7937 23.6066L93.6617 23.4933L93.3951 23.264L92.8671 22.8066L91.8084 21.892L89.6937 20.0653L88.6364 19.1533L88.1084 18.6973L87.8431 18.4693L87.7818 18.4146V17.0866V17.0653C87.8084 17.112 87.5737 16.5666 87.6657 16.7906L87.6338 16.7586L87.5737 16.6973L87.4484 16.5746L87.2044 16.328L86.7111 15.8346L82.7724 11.8893L81.7844 10.9026L81.2911 10.4093L81.0457 10.1626L80.9844 10.1C79.9324 10.1 80.6844 10.1093 80.4457 10.1133L80.4297 10.128L80.3977 10.1586L80.2764 10.2826L79.9737 10.5853L79.7631 10.4026L78.7097 9.49065L74.4817 5.82797L74.2177 5.59864L74.0844 5.48398L74.0177 5.42664L73.9857 5.39865L73.9697 5.38531C72.9271 5.42531 73.6711 5.40398 73.4337 5.41865L72.9377 5.91197L72.7284 6.11998L72.4391 5.86398L70.3351 4.00131L66.1137 0.259977L65.8484 0.0239744L65.8164 -0.00536315L65.7977 -0.0186892C64.6831 0.0159775 65.4817 -1.82588e-05 65.2257 0.0106484L65.1644 0.0733112L65.0391 0.198647L64.5364 0.697314L63.5297 1.69731L63.0271 2.19865L62.8991 2.32264C62.8951 1.80264 62.8857 3.05064 62.8951 2.92798L62.9124 2.94398L62.9431 2.97464L63.0044 3.03864L63.2551 3.29064L63.5057 3.54264L63.5604 3.59864L63.5857 4.25998L63.6004 4.61597V4.62265L63.1404 4.85064L61.8617 5.48797L59.2924 6.76664C55.8577 8.47464 52.3911 10.1946 48.8764 11.9293C38.1057 17.2626 18.1791 27.3346 7.81908 32.556C6.95775 33.0013 6.17641 33.4053 5.47108 33.772L5.20975 33.908L5.17241 33.928L4.82708 33.8133C4.48974 33.7 4.16974 33.5946 3.86974 33.496C3.56974 33.3986 3.28842 33.3053 3.02175 33.2186C2.44975 33.1106 2.40041 33.2 2.09374 33.1813L1.74174 33.1906L1.57507 33.1973H1.53507L1.51374 33.1986H1.50308L1.07908 33.624L1.08041 33.6293L1.08175 33.708L1.08841 33.8626L1.08974 33.9V33.9186V33.924C0.981742 33.664 1.23641 34.2813 1.21108 34.2186L1.21908 34.2253L1.27241 34.2746L1.35374 34.3506V34.352L1.08441 55.2653C0.856412 58.9506 0.960408 63.616 0.812408 67.7306C0.769742 68.9226 0.76308 70.1893 0.729747 71.616C0.625747 74.732 0.571079 77.7546 0.528412 80.7906C0.523079 80.9853 0.519075 81.176 0.516408 81.372C0.517742 81.316 0.519082 81.2626 0.521749 81.208C0.465749 85.244 0.429748 89.3066 0.337748 93.656C0.303082 95.7146 0.351077 97.5306 0.36441 99.264C0.361744 99.7613 0.348407 100.268 0.33374 100.767H0.332408V100.824C0.309741 101.579 0.281743 102.307 0.27241 102.916C0.249743 104.213 0.249742 105.364 0.256409 106.46L0.173747 115.32C0.160413 115.233 0.149742 115.299 0.145742 115.625C0.128408 117.293 0.133744 118.377 0.123077 119.873C0.136411 121.088 0.15774 122.259 0.167074 123.501C0.16574 123.847 0.152411 124.175 0.140411 124.503C0.157745 124.151 0.175079 123.784 0.193746 123.395C0.184413 124.449 0.173741 125.495 0.165741 126.543L0.105743 131.16H0.356415L1.41241 131.205C2.72575 131.249 4.02441 131.293 5.32574 131.335C5.77774 131.349 6.24441 131.363 6.71641 131.373H6.74442C7.48175 131.389 7.27375 131.369 6.82041 131.34C6.30841 131.315 5.84308 131.289 5.44708 131.264C5.69775 131.28 6.37375 131.315 6.82041 131.34C7.42708 131.371 8.12708 131.403 8.92975 131.435C10.1284 131.468 11.3644 131.503 12.6684 131.551C11.2204 131.515 9.98175 131.476 8.92975 131.435C8.16975 131.413 7.44441 131.395 6.71641 131.373C6.49908 131.369 6.29641 131.367 6.06841 131.363C9.06441 131.461 12.0391 131.561 15.0297 131.663C15.7097 131.683 16.3671 131.703 16.8964 131.716C19.0484 131.775 21.2057 131.831 22.5431 131.917C22.9924 131.931 23.4511 131.948 23.9097 131.963L24.0897 131.969L24.1164 131.995C24.1164 131.987 24.1164 131.979 24.1151 131.971L27.4231 132.083C27.7697 132.097 28.1004 132.121 28.4577 132.131C28.6031 132.135 28.7351 132.129 28.8791 132.132L31.1937 132.209C35.6111 132.36 40.0857 132.512 44.6417 132.667C51.9897 132.88 59.1604 133.24 66.3391 133.315C73.4337 132.444 80.4737 131.58 87.5484 130.711C91.0844 130.276 94.6297 129.841 98.1951 129.401C98.3057 129.313 98.1858 129.572 98.4844 129.197L98.4858 129.199L99.3191 36.772L100.276 36.364L100.383 35.5186L100.378 35.5213C100.388 35.4133 100.4 35.28 100.407 35.164Z" fill="black"/>
<path fill-rule="evenodd" clip-rule="evenodd" d="M77.8604 96.7997L77.9217 96.925L72.2897 96.8543L72.1777 96.7263L77.8604 96.7997ZM72.3631 80.925C72.3897 80.913 72.4217 80.9117 72.4631 80.929C72.5537 81.2637 72.6391 81.6743 72.6897 82.1517C72.7644 82.841 72.7391 83.4383 72.6937 83.889L72.3791 83.8757L72.1991 82.1397C72.1937 82.0757 72.1151 81.0263 72.3631 80.925V80.925ZM73.2164 80.789C73.3017 81.1583 73.3844 81.597 73.4351 82.0943C73.5044 82.8023 73.4937 83.425 73.4551 83.9197C73.3124 83.9143 73.1671 83.9077 73.0244 83.9023C73.0764 83.4757 73.1111 82.8757 73.0337 82.1717C72.9737 81.641 72.8644 81.1957 72.7604 80.857C72.9111 80.8343 73.0631 80.813 73.2164 80.789V80.789ZM73.9337 80.681C74.0191 81.0837 74.0977 81.5517 74.1484 82.0757C74.2151 82.789 74.2137 83.4237 74.1844 83.949C74.0644 83.9437 73.9444 83.9397 73.8284 83.9357C73.8497 83.433 73.8417 82.7983 73.7471 82.0837C73.6791 81.5717 73.5804 81.1237 73.4791 80.749L73.9337 80.681ZM74.4017 80.6103C74.5031 80.5957 74.6071 80.605 74.7097 80.6023L74.7671 83.9743C74.6657 83.969 74.5644 83.965 74.4631 83.9597C74.4537 83.3783 74.4257 82.7423 74.3631 82.0637C74.3177 81.5597 74.2591 81.085 74.1924 80.6423L74.4017 80.6103ZM76.3591 84.457C76.6151 84.465 76.8217 84.7303 76.8257 85.061L76.8524 87.0303C76.8577 87.377 76.6391 87.661 76.3697 87.6597L75.2751 87.645C74.7684 87.6383 74.3551 87.1197 74.3351 86.469L74.2937 85.0503C74.2831 84.6943 74.5071 84.3997 74.7831 84.409L76.3591 84.457ZM75.5924 80.717C75.5644 81.2037 75.5497 81.7237 75.5497 82.273C75.5511 82.8903 75.5724 83.469 75.6057 84.0077L75.1311 83.9877L75.0337 80.5997C75.2217 80.6183 75.4071 80.6557 75.5924 80.717V80.717ZM75.9191 82.1957C75.9337 81.7197 75.9617 81.2717 76.0004 80.8557C76.1804 80.9157 76.3591 80.9757 76.5391 81.037C76.4591 81.4277 76.3884 81.8877 76.3484 82.4103C76.3004 83.0343 76.3097 83.589 76.3391 84.0503C76.2057 84.041 76.0724 84.0303 75.9404 84.0197C75.9084 83.4663 75.8977 82.8557 75.9191 82.1957V82.1957ZM76.6711 82.497C76.7017 81.9743 76.7671 81.517 76.8391 81.1383L77.2537 81.2757C77.1991 81.6583 77.1524 82.0677 77.1137 82.5023C77.0697 83.061 77.0471 83.5837 77.0417 84.065L76.7044 84.0517C76.6631 83.6237 76.6391 83.097 76.6711 82.497V82.497ZM77.4457 84.4903L77.5831 95.5317L77.2777 95.5263L77.1697 84.4823L77.4457 84.4903ZM77.4711 82.605C77.5097 82.1983 77.5657 81.8263 77.6271 81.493L77.6284 81.481C77.9124 81.737 77.9911 82.201 77.8657 82.7037L77.6124 84.089C77.5457 84.0863 77.4791 84.0837 77.4124 84.081C77.4044 83.6463 77.4191 83.1503 77.4711 82.605V82.605ZM74.3844 89.3677C74.3791 88.681 74.8124 88.121 75.3431 88.129L76.4031 88.1423C76.6631 88.1463 76.8724 88.4143 76.8764 88.7477L76.9604 94.8877C76.9657 95.2357 76.7471 95.5197 76.4777 95.517L74.9017 95.4957C74.6417 95.4943 74.4324 95.2223 74.4284 94.8863L74.3844 89.3677ZM72.3897 87.069L72.4084 84.9623C72.4111 84.6183 72.6311 84.3437 72.8977 84.353L73.4431 84.369C73.6964 84.377 73.9004 84.637 73.9097 84.9623L73.9511 86.4237C73.9711 87.1223 73.5351 87.7023 72.9937 87.6943L72.8631 87.693C72.5991 87.689 72.3871 87.409 72.3897 87.069ZM72.8591 88.061L73.0631 88.0637C73.5817 88.0703 74.0004 88.613 74.0017 89.2823L74.0151 94.8597C74.0151 95.2037 73.7977 95.4823 73.5311 95.4797L72.7937 95.4703C72.5297 95.4663 72.3191 95.1877 72.3217 94.8463L72.3764 88.6717C72.3804 88.3317 72.5964 88.0583 72.8591 88.061V88.061ZM77.7724 96.1703L72.2964 96.101L72.2124 95.9397L77.6497 96.009L77.7724 96.1703ZM72.1257 83.8663L72.1231 84.3277L72.0257 95.4597V95.4917L72.0217 95.9383L72.0191 96.549L72.1737 97.037L72.2844 97.4677L77.9857 97.5397L77.9897 97.0383L77.9911 96.9263L77.9431 96.7997L77.9471 96.173L77.8444 96.0117L77.8271 95.533L77.7137 84.609C77.7137 84.5397 77.7217 84.4677 77.7391 84.3997L78.1297 82.9303C78.3644 82.0503 77.9791 81.1023 77.2871 80.8503L76.4084 80.5303L75.7137 80.3023C75.6897 80.2943 75.6657 80.289 75.6431 80.2863C74.9817 80.193 75.1097 80.2103 74.3884 80.185L74.3071 80.193L72.7684 80.437C71.8311 80.5637 71.8111 81.153 71.9351 82.613L72.1257 83.8663Z" fill="black"/>
<path fill-rule="evenodd" clip-rule="evenodd" d="M89.3604 85.1903C89.3804 85.1809 89.4044 85.1809 89.4377 85.1956C89.5044 85.4609 89.5711 85.7889 89.6097 86.1676C89.6684 86.7183 89.6497 87.1956 89.6151 87.5529L89.3724 87.5449L89.2337 86.1609C89.2297 86.1076 89.1697 85.2729 89.3604 85.1903ZM90.0111 85.0836C90.0791 85.3783 90.1417 85.7263 90.1804 86.1223C90.2351 86.6876 90.2271 87.1836 90.1991 87.5783C90.0884 87.5743 89.9777 87.5689 89.8684 87.5636C89.9071 87.2236 89.9351 86.7463 89.8737 86.1863C89.8284 85.7609 89.7444 85.4076 89.6644 85.1383C89.7791 85.1196 89.8937 85.1023 90.0111 85.0836ZM90.5617 84.9969C90.6284 85.3183 90.6884 85.6903 90.7257 86.1076C90.7791 86.6769 90.7777 87.1823 90.7564 87.6023L90.4831 87.5903C90.4991 87.1903 90.4937 86.6849 90.4204 86.1143C90.3684 85.7076 90.2924 85.3489 90.2137 85.0516L90.5617 84.9969ZM90.9204 84.9409C90.9991 84.9289 91.0777 84.9369 91.1577 84.9343L91.2031 87.6209L90.9711 87.6103C90.9631 87.1463 90.9404 86.6396 90.8924 86.0996C90.8564 85.6983 90.8111 85.3196 90.7604 84.9663L90.9204 84.9409ZM92.4231 88.0063C92.6177 88.0116 92.7777 88.2249 92.7791 88.4889L92.8031 90.0556C92.8057 90.3343 92.6404 90.5596 92.4324 90.5569L91.5951 90.5463C91.2071 90.5409 90.8897 90.1289 90.8751 89.6089L90.8417 88.4796C90.8324 88.1956 91.0044 87.9609 91.2164 87.9689L92.4231 88.0063ZM91.8324 85.0263C91.8124 85.4143 91.8004 85.8289 91.8017 86.2676C91.8017 86.7596 91.8191 87.2183 91.8444 87.6489L91.4817 87.6329L91.4031 84.9329C91.5484 84.9463 91.6911 84.9769 91.8324 85.0263ZM92.0831 86.2049C92.0937 85.8263 92.1151 85.4676 92.1457 85.1356L92.5564 85.2796C92.4977 85.5929 92.4444 85.9596 92.4124 86.3756C92.3777 86.8743 92.3844 87.3156 92.4071 87.6823C92.3057 87.6743 92.2044 87.6663 92.1004 87.6583C92.0777 87.2169 92.0671 86.7289 92.0831 86.2049V86.2049ZM92.6604 86.4449C92.6831 86.0289 92.7311 85.6623 92.7884 85.3609C92.8937 85.3983 92.9991 85.4356 93.1057 85.4716C93.0617 85.7756 93.0271 86.1036 92.9991 86.4489C92.9644 86.8929 92.9484 87.3103 92.9444 87.6956C92.8591 87.6916 92.7724 87.6876 92.6871 87.6836C92.6551 87.3423 92.6364 86.9223 92.6604 86.4449V86.4449ZM93.2551 88.0329L93.3684 96.8303L93.1364 96.8276L93.0444 88.0263L93.2551 88.0329ZM93.2724 86.5316C93.3017 86.2063 93.3444 85.9089 93.3911 85.6436L93.3924 85.6343C93.6111 85.8383 93.6697 86.2089 93.5737 86.6076L93.3831 87.7129C93.3311 87.7116 93.2791 87.7089 93.2284 87.7076C93.2217 87.3609 93.2324 86.9649 93.2724 86.5316V86.5316ZM90.9137 91.9196C90.9084 91.3729 91.2404 90.9276 91.6471 90.9343L92.4604 90.9423C92.6577 90.9449 92.8191 91.1609 92.8231 91.4249L92.8911 96.3196C92.8964 96.5969 92.7284 96.8236 92.5231 96.8209L91.3164 96.8049C91.1164 96.8023 90.9551 96.5849 90.9537 96.3183L90.9137 91.9196ZM89.3857 90.0876L89.3977 88.4089C89.3991 88.1356 89.5671 87.9169 89.7724 87.9223L90.1897 87.9356C90.3831 87.9409 90.5404 88.1489 90.5484 88.4089L90.5804 89.5729C90.5977 90.1303 90.2631 90.5916 89.8471 90.5863L89.7471 90.5849C89.5457 90.5823 89.3831 90.3596 89.3857 90.0876V90.0876ZM89.7457 90.8796L89.9017 90.8809C90.3004 90.8849 90.6191 91.3196 90.6217 91.8529L90.6364 96.2969C90.6364 96.5703 90.4697 96.7929 90.2657 96.7903L89.7031 96.7823C89.4991 96.7796 89.3377 96.5569 89.3391 96.2849L89.3764 91.3649C89.3777 91.0943 89.5444 90.8769 89.7457 90.8796ZM93.5137 97.3409L89.3217 97.2849L89.2564 97.1583L93.4191 97.2129L93.5137 97.3409ZM93.5817 97.8423L93.6297 97.9423L89.3177 97.8849L89.2297 97.7849L93.5817 97.8423ZM89.1817 87.5356L89.1777 87.9036L89.1124 96.7743V96.7996L89.1111 97.1556V97.6423L89.2271 98.0316L89.3137 98.3743L93.6791 98.4329L93.6817 98.0329V97.9423L93.6444 97.8436L93.6484 97.3436L93.5697 97.2156L93.5551 96.8329L93.4591 88.1276C93.4591 88.0716 93.4657 88.0143 93.4791 87.9609L93.7777 86.7889C93.9551 86.0903 93.6591 85.3316 93.1297 85.1316L92.4564 84.8769L91.9244 84.6956C91.9071 84.6889 91.8871 84.6849 91.8697 84.6809C91.3631 84.6076 91.4617 84.6209 90.9097 84.6023L90.8471 84.6076L89.6684 84.8009C88.9511 84.9036 88.9364 85.3743 89.0337 86.5383L89.1817 87.5356Z" fill="black"/>
<path fill-rule="evenodd" clip-rule="evenodd" d="M3.71721 42.9682L18.7745 36.2496L18.7852 37.2029L3.93321 43.4136L3.92255 43.9989L3.81321 84.5682L3.15721 84.7149L3.71721 42.9682ZM19.0025 57.4109L4.34788 62.1162L4.78655 43.6256L18.7892 37.5616L19.0025 57.4109ZM19.0239 59.4496L18.1372 59.7149L18.7519 58.0922L19.0092 58.0069L19.0239 59.4496ZM17.2345 59.9856L17.8359 58.3949L17.8559 58.3882L18.0732 59.7336L17.2345 59.9856ZM16.3025 60.2642L16.8919 58.7069L16.9225 58.6962L17.1359 60.0149L16.3025 60.2642ZM15.3879 60.5376L15.9652 59.0136L15.9839 59.0069L16.1932 60.2962L15.3879 60.5376ZM14.4679 60.8122L15.0305 59.3229L15.0452 59.3176L15.2492 60.5789L14.4679 60.8122ZM13.5159 61.0976L14.0665 59.6416L14.1105 59.6269L14.3105 60.8589L13.5159 61.0976ZM12.5719 61.3802L13.1092 59.9576L13.1492 59.9442L13.3439 61.1482L12.5719 61.3802ZM11.6039 61.6696L12.1279 60.2829L12.2012 60.2589L12.3905 61.4336L11.6039 61.6696ZM10.6252 61.9616L11.1359 60.6109L11.2119 60.5856L11.3972 61.7309L10.6252 61.9616ZM9.63988 62.2562L10.1372 60.9402L10.2159 60.9149L10.3972 62.0296L9.63988 62.2562ZM8.65988 62.5496L9.14388 61.2696L9.23321 61.2402L9.40921 62.3256L8.65988 62.5496ZM7.70521 62.8349L8.17588 61.5896L8.24255 61.5682L8.41321 62.6242L7.70521 62.8349ZM6.71721 63.1309L7.17588 61.9202L7.27188 61.8882L7.43855 62.9149L6.71721 63.1309ZM5.76521 63.4149L6.20921 62.2402L6.26655 62.2216L6.42788 63.2176L5.76521 63.4149ZM4.30655 63.8522L4.33055 62.8616L5.29988 62.5416L5.45588 63.5082L4.30655 63.8522ZM19.2572 81.1069L3.84388 84.5616L4.27855 65.0282L19.0305 60.0469L19.2572 81.1069L19.7385 35.4882L19.1612 35.6909L18.7705 35.8629L3.72388 42.4629L3.32388 42.6069L2.82788 84.7402L3.15055 85.1349L19.2572 81.1069Z" fill="black"/>
<path fill-rule="evenodd" clip-rule="evenodd" d="M11.9868 43.2065L11.9415 43.9745L11.7802 43.3452C11.8442 43.2999 11.9175 43.2532 11.9868 43.2065ZM12.1308 44.5345C12.1642 44.5158 12.1922 44.5039 12.2255 44.4865L12.2175 53.2905L12.0202 53.3558L12.1308 44.5345ZM12.6428 42.8012V43.7492C12.6242 43.7585 12.6082 43.7665 12.5895 43.7759L12.2215 43.0532C12.3535 42.9692 12.4935 42.8852 12.6428 42.8012V42.8012ZM13.8695 47.3918L13.8962 52.7345L12.5895 53.1665L12.6442 47.8225L13.8695 47.3918ZM12.6802 44.2612C12.8868 44.1692 13.0748 44.0985 13.2308 44.0452C13.4548 43.9692 13.6735 43.8999 13.9015 43.8452V46.8918L12.6495 47.3438L12.6802 44.2612ZM13.2975 42.4639V43.4985C13.2855 43.5025 13.2695 43.5052 13.2562 43.5105L12.9388 42.6439C13.0548 42.5825 13.1735 42.5239 13.2975 42.4639ZM13.6748 42.2905C13.7442 42.2612 13.8055 42.2465 13.8748 42.2185L13.8175 43.3492C13.8148 43.3505 13.8135 43.3505 13.8108 43.3505C13.8002 43.3532 13.7922 43.3572 13.7802 43.3598L13.4868 42.3772C13.5508 42.3479 13.6095 42.3185 13.6748 42.2905ZM14.4388 42.0132L14.4282 43.2439C14.4255 43.2439 14.4228 43.2439 14.4188 43.2452L14.1442 42.1212C14.2428 42.0839 14.3428 42.0452 14.4388 42.0132ZM15.4548 46.7932L15.5068 52.1998L14.3708 52.5758L14.5548 47.1465L15.4548 46.7932ZM14.5548 43.7639C14.6335 43.7625 14.7082 43.7559 14.7908 43.7599C15.0455 43.7745 15.2482 43.8172 15.4015 43.8559L15.3988 43.8718H15.4268L15.4508 46.3385L14.5548 46.6625V43.7639ZM15.0935 41.8172L14.8415 43.2039H14.8548H14.8415L14.6828 41.9252C14.8295 41.8798 14.9562 41.8519 15.0935 41.8172ZM15.3695 43.1919V41.7465C15.4575 41.7265 15.5588 41.6945 15.6415 41.6785C15.5855 42.1852 15.5295 42.6932 15.4735 43.1999C15.4135 43.1972 15.3535 43.1959 15.2895 43.1945L15.3695 43.1919ZM11.4002 53.5625L10.8668 53.7572L11.1335 54.8665L16.1402 53.2292L16.1228 51.9958L16.0428 52.0212L15.8428 43.7892L16.1308 41.2359C15.9695 41.2239 16.0455 41.1639 15.7722 41.2012C15.1628 41.2745 14.3735 41.4319 13.5055 41.7799C12.6828 42.1079 12.0575 42.4745 11.5748 42.8212C11.3308 42.9972 11.2228 43.3052 11.3002 43.5959L11.5882 44.6745L11.4228 53.5532L11.4002 53.5625Z" fill="black"/>
<path fill-rule="evenodd" clip-rule="evenodd" d="M15.0349 65.4305C14.8616 65.4118 14.6616 65.4038 14.4323 65.4025L14.8909 63.3745C14.9416 63.3705 14.9976 63.3638 15.0456 63.3611C15.0229 64.0425 15.0003 64.7251 14.9789 65.4065L15.0349 65.4305ZM14.8043 69.2505L13.5283 69.5851C13.5003 69.1158 13.5469 68.5971 13.5723 68.0358C13.5989 67.4518 13.6589 66.9171 13.7336 66.4398C13.8683 66.3731 14.0923 66.2838 14.3816 66.2558C14.4883 66.2451 14.5803 66.2518 14.6709 66.2585C14.7816 66.3905 14.8563 66.5545 14.8523 66.7451C14.8363 67.5691 14.8203 68.4065 14.8043 69.2505V69.2505ZM14.6723 76.0758L13.5056 76.2638L13.4896 70.1598L14.7896 69.9558C14.7509 72.0131 14.7109 74.0878 14.6723 76.0758ZM11.1283 67.1545L10.7309 74.7518L10.6709 67.7545C10.6683 67.5171 10.7709 67.2971 10.9563 67.1491C11.3443 66.8398 11.9296 66.4585 12.7123 66.2131C13.2003 66.0598 13.6523 65.9931 14.0389 65.9731C14.1696 65.9651 14.2896 65.9971 14.4003 66.0478C14.0336 66.0838 13.6256 66.1478 13.1829 66.2651C12.2949 66.5025 11.6029 66.8598 11.1283 67.1545V67.1545ZM13.0016 68.1771C12.9963 68.7451 12.9136 69.2851 12.9736 69.7198L11.4856 70.1465C11.4136 69.7425 11.4483 69.2318 11.4229 68.7198C11.3989 68.2078 11.4123 67.7411 11.4456 67.3318C11.4603 67.3291 11.4749 67.3251 11.4896 67.3225C11.6923 67.1891 11.9496 67.0411 12.2603 66.9118C12.5883 66.7758 12.8883 66.6958 13.1349 66.6465C13.0629 67.0851 13.0083 67.5998 13.0016 68.1771V68.1771ZM12.9736 76.3491L11.1829 76.6371L11.4709 70.5771L12.9936 70.3198L12.9736 76.3491ZM10.4989 64.9158C10.5283 64.8971 10.5656 64.8745 10.5963 64.8545L10.9416 66.4838C10.8203 66.5678 10.7083 66.6491 10.6083 66.7291L10.4989 64.9158ZM11.3309 64.4171L11.4856 66.1545C11.3776 66.2131 11.2723 66.2718 11.1763 66.3331L11.1736 64.5038C11.2256 64.4758 11.2763 64.4465 11.3309 64.4171V64.4171ZM12.0123 64.0878C12.1069 64.0465 12.2056 64.0091 12.3056 63.9705L12.3749 65.7531C12.1909 65.8198 12.0203 65.8918 11.8563 65.9678L12.0123 64.0878ZM12.9776 63.7358C13.0576 63.7105 13.1363 63.6891 13.2149 63.6678V65.5238C13.0469 65.5571 12.8723 65.6025 12.6963 65.6545L12.9776 63.7358ZM13.8176 63.5251C13.9376 63.5011 14.0549 63.4785 14.1669 63.4598V65.4011C13.9696 65.4091 13.7496 65.4358 13.5269 65.4678L13.8176 63.5251ZM15.3163 65.4251L15.5069 63.7025C15.5563 63.2598 15.2176 62.8585 14.7709 62.8545C14.1896 62.8505 13.4496 62.9211 12.6376 63.1905C11.5016 63.5678 10.7016 64.1771 10.2216 64.6211C10.0456 64.7838 9.96028 65.0158 9.98428 65.2558L10.1669 67.0811C10.1683 67.0985 10.1696 67.1171 10.1696 67.1345L10.4549 76.7518L10.5949 76.7318L9.66294 76.8811L9.47894 78.1798L15.2309 77.3385L15.4789 75.9451L15.0976 76.0065L15.3123 65.4945C15.3123 65.4705 15.3136 65.4478 15.3163 65.4251" fill="black"/>
<path fill-rule="evenodd" clip-rule="evenodd" d="M21.7023 35.6003L36.7596 28.3603L36.7703 29.387L21.9183 36.079L21.9076 36.711L21.9089 36.7097L21.9076 36.711L21.7983 80.5723L21.1396 80.7363L21.7023 35.6003ZM36.9876 51.1603L22.3343 56.231L22.7716 36.307L36.7743 29.775L36.9876 51.1603ZM37.0089 53.3577L36.1223 53.6443L36.7369 51.895L36.9943 51.803L37.0089 53.3577ZM35.2196 53.935L35.8209 52.2217L35.8409 52.2137L36.0583 53.6643L35.2196 53.935ZM34.2876 54.235L34.8769 52.5577L34.9076 52.547L35.1209 53.967L34.2876 54.235ZM33.3729 54.5297L33.9503 52.8883L33.9689 52.8817L34.1783 54.271L33.3729 54.5297ZM32.4529 54.827L33.0156 53.2203L33.0303 53.2163L33.2343 54.575L32.4529 54.827ZM31.5009 55.1337L32.0516 53.5643L32.0956 53.5483L32.2956 54.8777L31.5009 55.1337ZM30.5569 55.4377L31.0943 53.9057L31.1343 53.8923L31.3289 55.1883L30.5569 55.4377ZM29.5889 55.7497L30.1129 54.2563L30.1863 54.2297L30.3756 55.4963L29.5889 55.7497ZM28.6103 56.0657L29.1209 54.6083L29.1969 54.5817L29.3823 55.8163L28.6103 56.0657ZM27.6249 56.383L28.1223 54.9643L28.2009 54.9363L28.3823 56.139L27.6249 56.383ZM26.6463 56.699L27.1289 55.319L27.2183 55.287L27.3943 56.4577L26.6463 56.699ZM25.6903 57.0057L26.1609 55.6643L26.2276 55.6403L26.3983 56.7777L25.6903 57.0057ZM24.7023 57.3243L25.1609 56.0203L25.2569 55.987L25.4236 57.0923L24.7023 57.3243ZM23.7503 57.631L24.1943 56.3657L24.2529 56.3443L24.4129 57.4177L23.7503 57.631ZM22.2916 58.1003L22.3156 57.035L23.2849 56.6897L23.4409 57.731L22.2916 58.1003ZM37.2423 76.6937L21.8263 80.5643L22.2649 59.3697L37.0156 54.0017L37.2423 76.687V76.691V76.6937L37.7236 27.5403L37.1476 27.7803L37.1463 27.759L21.7089 35.055L21.3089 35.211L20.8129 80.6083L21.1356 81.0323L37.2423 76.6937Z" fill="black"/>
<path fill-rule="evenodd" clip-rule="evenodd" d="M26.7511 36.489L26.6964 37.3157C26.6298 37.0904 26.5631 36.8637 26.4964 36.6384C26.5751 36.5904 26.6658 36.5397 26.7511 36.489ZM26.9298 37.9184C26.9711 37.8997 27.0058 37.8864 27.0458 37.8677L27.0364 47.353L26.7924 47.425L26.9298 37.9184ZM27.5604 36.0517V37.073C27.5364 37.0824 27.5178 37.093 27.4951 37.101L27.0404 36.3224C27.2044 36.233 27.3764 36.1424 27.5604 36.0517V36.0517ZM29.0738 40.997L29.1071 46.7544L27.4964 47.221L27.5618 41.4624L29.0738 40.997ZM27.6071 37.6237C27.8618 37.5264 28.0938 37.449 28.2858 37.393C28.5618 37.3104 28.8311 37.2357 29.1124 37.177V40.4597L27.5684 40.945L27.6071 37.6237ZM28.3684 35.689V36.8024C28.3524 36.8077 28.3338 36.8104 28.3178 36.8157L27.9258 35.881C28.0684 35.817 28.2164 35.753 28.3684 35.689ZM28.8338 35.5024C28.9191 35.4704 28.9951 35.4544 29.0804 35.4237L29.0098 36.6437C29.0071 36.6437 29.0044 36.6437 29.0018 36.645C28.9884 36.6477 28.9778 36.6517 28.9644 36.6544L28.6031 35.5957C28.6804 35.565 28.7524 35.5317 28.8338 35.5024ZM29.7764 35.2037L29.7631 36.529C29.7591 36.529 29.7564 36.529 29.7524 36.5304L29.4138 35.3184C29.5351 35.2797 29.6578 35.2384 29.7764 35.2037ZM31.0298 40.353L31.0938 46.1784L29.6924 46.585L29.9204 40.7344L31.0298 40.353ZM29.9204 37.089C30.0164 37.0877 30.1084 37.0797 30.2098 37.085C30.5258 37.0997 30.7751 37.1464 30.9631 37.189C30.9618 37.1944 30.9618 37.1997 30.9604 37.2064H30.9951L31.0244 39.8637L29.9204 40.2117V37.089ZM30.5831 34.9904L30.2738 36.4864H30.2898H30.2724H30.2738L30.0778 35.1077C30.2578 35.0597 30.4138 35.029 30.5831 34.9904ZM30.9244 36.473V34.9157C31.0324 34.8944 31.1591 34.8597 31.2604 34.841C31.1911 35.3877 31.1218 35.9344 31.0524 36.4824C30.9791 36.4797 30.9058 36.477 30.8258 36.4757L30.9244 36.473ZM26.0271 47.6464L25.3698 47.857L25.6978 49.0517L31.8751 47.2877L31.8538 45.9584L31.7551 45.9877L31.5071 37.117L31.8631 34.3664C31.6644 34.3517 31.7591 34.2877 31.4204 34.3264C30.6684 34.4064 29.6951 34.577 28.6244 34.9517C27.6111 35.305 26.8391 35.6997 26.2444 36.073C25.9418 36.2637 25.8084 36.5944 25.9044 36.909L26.2591 38.0717L26.0564 47.637L26.0271 47.6464Z" fill="black"/>
<path fill-rule="evenodd" clip-rule="evenodd" d="M31.3286 60.1225C31.1299 60.1025 30.8992 60.0945 30.6366 60.0945L31.1632 57.9065C31.2206 57.9025 31.2846 57.8958 31.3392 57.8931C31.3139 58.6278 31.2886 59.3625 31.2632 60.0971L31.3286 60.1225ZM31.0632 64.2385L29.6006 64.5985C29.5672 64.0945 29.6219 63.5345 29.6512 62.9291C29.6806 62.3011 29.7486 61.7251 29.8352 61.2105C29.9912 61.1385 30.2459 61.0425 30.5792 61.0118C30.7006 61.0011 30.8059 61.0078 30.9099 61.0145C31.0366 61.1571 31.1232 61.3345 31.1192 61.5385C31.1006 62.4265 31.0819 63.3291 31.0632 64.2385V64.2385ZM30.9112 71.5931L29.5726 71.7958L29.5552 65.2198L31.0472 64.9998C31.0019 67.2158 30.9579 69.4518 30.9112 71.5931V71.5931ZM26.8459 61.9811L26.3912 70.1651L26.3206 62.6265C26.3179 62.3718 26.4366 62.1345 26.6486 61.9745C27.0939 61.6411 27.7646 61.2318 28.6632 60.9665C29.2232 60.8011 29.7432 60.7305 30.1859 60.7065C30.3352 60.6998 30.4726 60.7345 30.6006 60.7878C30.1792 60.8265 29.7126 60.8958 29.2032 61.0225C28.1846 61.2785 27.3912 61.6638 26.8459 61.9811V61.9811ZM28.9952 63.0825C28.9886 63.6931 28.8952 64.2771 28.9632 64.7438L27.2552 65.2051C27.1739 64.7678 27.2126 64.2185 27.1846 63.6665C27.1566 63.1158 27.1726 62.6131 27.2099 62.1718C27.2259 62.1678 27.2432 62.1651 27.2606 62.1625C27.4926 62.0171 27.7872 61.8598 28.1446 61.7198C28.5206 61.5718 28.8646 61.4851 29.1486 61.4318C29.0659 61.9051 29.0032 62.4598 28.9952 63.0825V63.0825ZM28.9632 71.8865L26.9099 72.1985L27.2392 65.6691L28.9872 65.3918L28.9632 71.8865ZM26.1246 59.5691C26.1579 59.5478 26.2006 59.5238 26.2352 59.5025L26.6312 61.2585C26.4926 61.3478 26.3646 61.4358 26.2499 61.5225L26.1246 59.5691ZM27.0779 59.0318L27.2552 60.9025C27.1326 60.9665 27.0112 61.0305 26.9006 61.0945L26.8979 59.1238C26.9579 59.0945 27.0166 59.0625 27.0779 59.0318ZM27.8606 58.6758C27.9686 58.6318 28.0819 58.5918 28.1952 58.5491L28.2766 60.4705C28.0659 60.5411 27.8686 60.6198 27.6806 60.7025L27.8606 58.6758ZM28.9672 58.2958C29.0606 58.2705 29.1499 58.2478 29.2406 58.2238V60.2238C29.0472 60.2598 28.8472 60.3091 28.6446 60.3651L28.9672 58.2958ZM29.9326 58.0691C30.0686 58.0438 30.2032 58.0198 30.3326 57.9998V60.0905C30.1059 60.0998 29.8539 60.1291 29.5979 60.1638L29.9326 58.0691ZM31.6512 60.1171L31.8699 58.2611C31.9272 57.7838 31.5379 57.3518 31.0259 57.3478C30.3592 57.3438 29.5086 57.4185 28.5779 57.7091C27.2726 58.1158 26.3552 58.7718 25.8046 59.2505C25.6032 59.4265 25.5059 59.6771 25.5339 59.9331L25.7419 61.9011C25.7446 61.9211 25.7459 61.9398 25.7459 61.9585C25.8552 65.4131 25.9646 68.8678 26.0739 72.3211L26.2339 72.2998L25.1632 72.4625L24.9539 73.8611L31.5539 72.9531L31.8366 71.4531L31.4006 71.5185L31.6459 60.1918C31.6459 60.1665 31.6486 60.1425 31.6512 60.1171" fill="black"/>
<path fill-rule="evenodd" clip-rule="evenodd" d="M40.2648 26.9337L61.7021 19.0017L61.7101 19.7017L40.5715 27.459L40.5581 28.1497L40.4021 76.1324L39.4661 76.3097L40.2648 26.9337ZM62.0261 43.9844L41.1635 49.539L41.7875 27.7084L61.7155 20.127L62.0261 43.9844ZM62.0568 46.391L60.7941 46.7057L61.6675 44.7884L62.0355 44.687L62.0568 46.391ZM59.5075 47.0244L60.3648 45.1457L60.3915 45.1377L60.7035 46.727L59.5075 47.0244ZM58.1821 47.3524L59.0208 45.515L59.0648 45.503L59.3688 47.0577L58.1821 47.3524ZM56.8795 47.6764L57.7008 45.8764L57.7288 45.8697L58.0261 47.391L56.8795 47.6764ZM55.5688 48.0004L56.3728 46.2404L56.3915 46.2364L56.6821 47.7244L55.5688 48.0004ZM54.2141 48.3364L54.9981 46.6177L55.0608 46.6004L55.3461 48.0564L54.2141 48.3364ZM52.8715 48.6697L53.6368 46.991L53.6928 46.9764L53.9701 48.3977L52.8715 48.6697ZM51.4915 49.0124L52.2381 47.375L52.3421 47.347L52.6128 48.7337L51.4915 49.0124ZM50.0995 49.3577L50.8275 47.763L50.9341 47.7324L51.1995 49.0844L50.0995 49.3577ZM48.6968 49.7057L49.4048 48.1524L49.5168 48.1217L49.7741 49.4377L48.6968 49.7057ZM47.3021 50.051L47.9915 48.5404L48.1181 48.5057L48.3688 49.787L47.3021 50.051ZM45.9421 50.3884L46.6128 48.9177L46.7075 48.8924L46.9501 50.139L45.9421 50.3884ZM44.5368 50.7377L45.1875 49.3097L45.3261 49.271L45.5621 50.483L44.5368 50.7377ZM43.1808 51.0737L43.8128 49.6857L43.8955 49.6644L44.1248 50.839L43.1808 51.0737ZM41.1048 51.5884L41.1381 50.4204L42.5181 50.0417L42.7408 51.183L41.1048 51.5884ZM62.3501 69.007L62.3621 71.9657L40.4435 76.1257L41.0661 52.979L62.0661 47.0977L62.3501 69.007ZM62.3621 71.9657L63.0741 18.1257H63.0728L63.0901 16.803L60.0808 18.2364L40.2741 26.3377L39.7061 26.507L38.9995 76.2497L39.4595 76.715L62.3621 71.9657Z" fill="black"/>
<path fill-rule="evenodd" clip-rule="evenodd" d="M48.3592 27.1832L48.2939 28.1312C48.2139 27.8725 48.1339 27.6139 48.0539 27.3539C48.1485 27.2992 48.2565 27.2405 48.3592 27.1832ZM48.5725 28.8232C48.6205 28.8005 48.6632 28.7872 48.7112 28.7659L48.6992 39.6459L48.4085 39.7272L48.5725 28.8232ZM49.3259 26.6819V27.8525C49.2979 27.8645 49.2752 27.8752 49.2472 27.8859L48.7045 26.9925C48.9005 26.8899 49.1059 26.7859 49.3259 26.6819ZM51.1339 32.3552L51.1725 38.9579L49.2485 39.4925L49.3272 32.8872L51.1339 32.3552ZM49.3805 28.4859C49.6859 28.3739 49.9619 28.2859 50.1925 28.2192C50.5219 28.1259 50.8432 28.0392 51.1792 27.9725V31.7379L49.3339 32.2952L49.3805 28.4859ZM50.2912 26.2659V27.5432C50.2725 27.5485 50.2499 27.5525 50.2299 27.5579L49.7619 26.4872C49.9325 26.4112 50.1085 26.3392 50.2912 26.2659ZM50.8459 26.0512C50.9485 26.0152 51.0392 25.9952 51.1405 25.9619L51.0552 27.3605C51.0525 27.3605 51.0499 27.3605 51.0472 27.3619C51.0312 27.3645 51.0179 27.3699 51.0019 27.3725L50.5712 26.1579C50.6645 26.1232 50.7485 26.0859 50.8459 26.0512ZM51.9712 25.7099L51.9565 27.2299C51.9525 27.2299 51.9472 27.2299 51.9432 27.2312L51.5379 25.8405C51.6832 25.7952 51.8312 25.7485 51.9712 25.7099ZM53.4699 31.6152L53.5459 38.2979L51.8725 38.7632L52.1445 32.0525L53.4699 31.6152ZM52.1445 27.8725C52.2592 27.8699 52.3685 27.8619 52.4912 27.8672C52.8672 27.8845 53.1645 27.9365 53.3885 27.9859C53.3872 27.9925 53.3872 27.9992 53.3872 28.0059H53.4285L53.4632 31.0539L52.1445 31.4539V27.8725ZM52.9365 25.4645L52.5659 27.1805L52.5859 27.1792C52.5779 27.1805 52.5712 27.1792 52.5645 27.1805H52.5659L52.3312 25.5992C52.5485 25.5445 52.7325 25.5099 52.9365 25.4645ZM53.3432 27.1659V25.3779C53.4725 25.3539 53.6232 25.3152 53.7445 25.2939C53.6619 25.9205 53.5792 26.5472 53.4965 27.1752C53.4085 27.1725 53.3205 27.1685 53.2259 27.1672L53.3432 27.1659ZM47.4939 39.9805L46.7099 40.2232L47.1019 41.5925L54.4792 39.5699L54.4525 38.0445L54.3365 38.0779L54.0405 27.9032L54.4645 24.7485C54.2272 24.7325 54.3392 24.6579 53.9379 24.7045C53.0379 24.7952 51.8765 24.9899 50.5965 25.4192C49.3859 25.8245 48.4645 26.2779 47.7525 26.7072C47.3925 26.9245 47.2339 27.3045 47.3485 27.6645L47.7712 28.9979L47.5285 39.9712L47.4939 39.9805Z" fill="black"/>
<path fill-rule="evenodd" clip-rule="evenodd" d="M54.0336 54.0184C53.7776 53.9957 53.4829 53.9864 53.1443 53.985L53.8216 51.4784C53.8949 51.473 53.9776 51.465 54.0483 51.461C54.0149 52.3037 53.9829 53.1464 53.9509 53.989L54.0336 54.0184ZM53.6923 58.7397L51.8136 59.153C51.7723 58.5744 51.8403 57.933 51.8789 57.2384C51.9176 56.517 52.0056 55.8557 52.1163 55.2664C52.3149 55.1837 52.6443 55.0744 53.0696 55.0397C53.2283 55.0264 53.3629 55.0344 53.4963 55.0424C53.6589 55.2064 53.7709 55.4077 53.7643 55.6437C53.7403 56.661 53.7163 57.697 53.6923 58.7397V58.7397ZM53.4989 67.1744L51.7789 67.4077L51.7576 59.865L53.6723 59.613C53.6149 62.1557 53.5576 64.7184 53.4989 67.1744V67.1744ZM48.2763 56.1504L47.6923 65.5384L47.6016 56.8917C47.5989 56.5984 47.7509 56.325 48.0243 56.1437C48.5949 55.761 49.4563 55.2904 50.6109 54.9864C51.3296 54.7957 51.9976 54.7144 52.5643 54.689C52.7589 54.681 52.9363 54.7197 53.0989 54.7824C52.5576 54.8264 51.9576 54.905 51.3043 55.0504C49.9949 55.345 48.9776 55.7864 48.2763 56.1504V56.1504ZM51.0376 57.4144C51.0283 58.1144 50.9083 58.7837 50.9963 59.3197L48.8029 59.8477C48.6976 59.3477 48.7469 58.717 48.7109 58.0837C48.6749 57.4517 48.6963 56.8744 48.7443 56.369C48.7656 56.365 48.7869 56.361 48.8083 56.357C49.1069 56.1917 49.4856 56.0104 49.9443 55.8504C50.4269 55.6824 50.8696 55.5824 51.2336 55.521C51.1283 56.0637 51.0469 56.6997 51.0376 57.4144V57.4144ZM50.9949 67.513L48.3576 67.869L48.7816 60.3797L51.0256 60.0637L50.9949 67.513ZM47.3496 53.3837C47.3936 53.3584 47.4483 53.3317 47.4936 53.3064L48.0016 55.321C47.8229 55.4237 47.6589 55.525 47.5109 55.6237L47.3496 53.3837ZM48.5749 52.7677L48.8029 54.913C48.6443 54.9864 48.4896 55.0597 48.3483 55.133L48.3443 52.8744C48.4203 52.8384 48.4949 52.8024 48.5749 52.7677V52.7677ZM49.5803 52.3584C49.7189 52.309 49.8643 52.2624 50.0109 52.2144L50.1149 54.4184C49.8429 54.4997 49.5896 54.589 49.3483 54.6837L49.5803 52.3584ZM51.0016 51.9237C51.1203 51.8944 51.2363 51.8677 51.3509 51.841V54.1344C51.1043 54.1757 50.8469 54.2317 50.5869 54.2957L51.0016 51.9237ZM52.2389 51.6637C52.4163 51.6344 52.5883 51.6064 52.7549 51.5837V53.9824C52.4629 53.9917 52.1403 54.025 51.8109 54.0664L52.2389 51.6637ZM54.6856 67.0144L54.1256 67.0904L54.4416 54.0984C54.4416 54.069 54.4443 54.041 54.4483 54.013L54.7283 51.8837C54.8016 51.3357 54.3029 50.841 53.6456 50.8357C52.7883 50.8304 51.6963 50.917 50.5003 51.2504C48.8256 51.7157 47.6469 52.469 46.9403 53.0184C46.6816 53.2197 46.5576 53.5077 46.5909 53.8024L46.8589 56.0597C46.8616 56.081 46.8643 56.1024 46.8643 56.125C47.0043 60.0864 47.1443 64.0477 47.2843 68.0104L47.4909 67.9864L46.1176 68.1717L45.8469 69.7757L54.3229 68.7357L54.6856 67.0144Z" fill="black"/>
<path fill-rule="evenodd" clip-rule="evenodd" d="M77.9699 31.506L77.9459 30.7393C78.0272 30.79 78.1112 30.842 78.1859 30.8913C78.1125 31.0967 78.0419 31.3007 77.9699 31.506ZM77.5152 40.838L77.2845 40.758L77.6152 31.9953C77.6539 32.0153 77.6872 32.0287 77.7245 32.05L77.5152 40.838ZM77.1525 31.2313L77.1885 30.2887C77.3619 30.3833 77.5219 30.4767 77.6752 30.5687L77.2139 31.262C77.1912 31.2527 77.1739 31.242 77.1525 31.2313V31.2313ZM77.0059 34.8087L75.5459 34.27L75.6645 31.2393C75.9312 31.3087 76.1859 31.394 76.4459 31.4847C76.6285 31.5487 76.8472 31.6327 77.0885 31.738L77.0059 34.8087ZM76.8499 40.6087L75.3259 40.086L75.5632 34.77L76.9939 35.286L76.8499 40.6087ZM75.0645 30.6033L75.1005 29.378C75.2125 29.4167 75.3285 29.462 75.4419 29.5047L75.0752 30.6047C75.0712 30.6033 75.0672 30.6033 75.0645 30.6033V30.6033ZM74.7819 33.9967L73.7392 33.61L73.8619 31.1567L73.8952 31.1593C73.8939 31.154 73.8939 31.1487 73.8925 31.1433C74.0752 31.1153 74.3152 31.0873 74.6165 31.0913C74.7165 31.0927 74.8032 31.1047 74.8939 31.1113L74.7819 33.9967ZM73.4459 39.4393L73.7165 34.062L74.7645 34.478L74.7725 39.8953L73.4459 39.4393ZM74.0112 29.046L73.9552 30.4847L74.0512 30.4927C73.9739 30.4887 73.9032 30.4873 73.8325 30.4847C73.7859 29.9767 73.7405 29.4673 73.6939 28.958C73.7899 28.9807 73.9099 29.0193 74.0112 29.046ZM74.8152 29.2727L74.5779 30.534H74.5792C74.5739 30.534 74.5685 30.534 74.5619 30.5327L74.5779 30.534L74.3352 29.1353C74.4965 29.1807 74.6445 29.2167 74.8152 29.2727ZM75.9912 29.7073C76.0672 29.7407 76.1339 29.774 76.2085 29.8073L75.8245 30.7633C75.8125 30.7607 75.8019 30.7567 75.7885 30.754L75.7805 30.7513L75.7579 29.6207C75.8379 29.654 75.9099 29.6727 75.9912 29.7073V29.7073ZM76.4285 29.9073C76.5725 29.9753 76.7125 30.042 76.8445 30.11L76.4379 30.95C76.4219 30.946 76.4032 30.9407 76.3872 30.9353L76.4285 29.9073ZM78.4459 30.3847C77.8912 30.006 77.1672 29.5953 76.2112 29.2113C75.1992 28.8047 74.2752 28.59 73.5579 28.474C73.2365 28.418 73.3245 28.4833 73.1339 28.4847L73.0285 30.7753L72.7259 39.1927L72.6592 40.4193L78.3739 41.9553L78.3859 41.346L78.2392 41.086L78.2125 41.0767L78.3605 32.2287L78.7419 31.1753C78.8445 30.8913 78.7285 30.5767 78.4459 30.3847Z" fill="black"/>
<path fill-rule="evenodd" clip-rule="evenodd" d="M93.3331 42.2912C93.3131 42.2805 93.2984 42.2698 93.2784 42.2605L93.3517 41.3872C93.5037 41.4818 93.6451 41.5752 93.7811 41.6672L93.3331 42.2912ZM93.2011 51.1792L92.9957 51.0965L93.6651 42.9872C93.6984 43.0072 93.7291 43.0205 93.7624 43.0418L93.2011 51.1792ZM91.6957 45.0112L91.9304 42.2058C92.1704 42.2805 92.3971 42.3712 92.6304 42.4658C92.7917 42.5325 92.9851 42.6192 93.1984 42.7272L92.9957 45.5698L91.6957 45.0112ZM92.6091 50.9405L91.2517 50.3925L91.6917 45.4752L92.9637 46.0125L92.6091 50.9405ZM90.9784 41.5072C90.9744 41.5072 90.9704 41.5058 90.9651 41.5058L90.9784 41.5072L90.8184 40.2005C90.9624 40.2498 91.0931 40.2898 91.2464 40.3472L90.9784 41.5072ZM91.0184 44.7258L90.0891 44.3245L90.3051 42.0552L90.3344 42.0592C90.3344 42.0538 90.3331 42.0485 90.3331 42.0432C90.4984 42.0258 90.7171 42.0085 90.9904 42.0258C91.0797 42.0312 91.1571 42.0445 91.2411 42.0552L91.0184 44.7258ZM90.7584 50.1925L89.5784 49.7165L90.0491 44.7418L90.9797 45.1712L90.7584 50.1925ZM90.5277 40.1045L90.4171 41.4365L90.5024 41.4472C90.4331 41.4405 90.3691 41.4352 90.3064 41.4312C90.2864 40.9578 90.2651 40.4845 90.2451 40.0112C90.3304 40.0352 90.4371 40.0765 90.5277 40.1045ZM91.4997 40.4578C91.5984 40.4978 91.7011 40.5445 91.8051 40.5885L91.4251 41.5938C91.4211 41.5925 91.4184 41.5925 91.4157 41.5912L91.4997 40.4578ZM92.0837 40.7098C92.1557 40.7432 92.2197 40.7645 92.2931 40.7992C92.3597 40.8325 92.4184 40.8672 92.4837 40.9005L92.0957 41.7712C92.0851 41.7685 92.0771 41.7632 92.0651 41.7605C92.0637 41.7605 92.0611 41.7592 92.0584 41.7592L92.0837 40.7098ZM92.6797 41.0032C92.8064 41.0712 92.9291 41.1392 93.0477 41.2085L92.6424 41.9698C92.6304 41.9645 92.6131 41.9592 92.5997 41.9552L92.6797 41.0032ZM94.0197 41.8365C94.0877 41.8858 94.1637 41.9378 94.2277 41.9872C94.1544 42.1738 94.0811 42.3605 94.0077 42.5472L94.0197 41.8365ZM94.0264 51.5178L93.8477 51.4392L93.8224 51.4298L94.3304 43.2338L94.7197 42.2725C94.8237 42.0138 94.7344 41.7178 94.4864 41.5285C93.9997 41.1525 93.3611 40.7445 92.5117 40.3472C91.6131 39.9298 90.7864 39.6938 90.1411 39.5552C89.8544 39.4912 89.9304 39.5552 89.7571 39.5472L89.5664 41.6672L88.9384 49.4578L88.8237 50.5925L94.1531 52.0178L94.0264 51.5178Z" fill="black"/>
<path fill-rule="evenodd" clip-rule="evenodd" d="M91.4803 73.0627L91.951 63.0027C91.9736 63.0267 91.995 63.044 92.019 63.0693L91.6243 73.1653L91.4803 73.0627ZM90.567 65.512L90.7323 62.032C90.899 62.1253 91.0603 62.2373 91.223 62.356C91.3376 62.4373 91.4723 62.5453 91.623 62.6787L91.4803 66.2053L90.567 65.512ZM91.2083 72.868L90.255 72.1893L90.5643 66.088L91.4563 66.7547L91.2083 72.868ZM90.0643 61.1653C90.0603 61.1653 90.0576 61.164 90.0536 61.1627L90.0643 61.1653L89.951 59.544C90.051 59.6053 90.1443 59.6547 90.251 59.7267L90.0643 61.1653ZM90.091 65.1573L89.439 64.6613L89.5896 61.8453L89.611 61.8493V61.832C89.727 61.808 89.8803 61.788 90.071 61.808C90.1336 61.8147 90.1883 61.8333 90.247 61.8453L90.091 65.1573ZM89.9083 71.9413L89.079 71.3507L89.4096 65.18L90.0643 65.7107L89.9083 71.9413ZM89.747 59.4253L89.6696 61.0773L89.7296 61.0907C89.6803 61.0827 89.635 61.0773 89.591 61.072L89.5483 59.308C89.6083 59.34 89.683 59.3907 89.747 59.4253ZM90.4296 59.8627C90.499 59.9133 90.571 59.9707 90.643 60.0267L90.3776 61.272C90.375 61.2707 90.3723 61.2707 90.3696 61.2693L90.4296 59.8627ZM90.8403 60.176C90.891 60.2173 90.935 60.244 90.9856 60.288C91.0336 60.3293 91.075 60.3707 91.1203 60.412L90.8483 61.4933C90.8416 61.4893 90.835 61.484 90.827 61.48C90.8256 61.4787 90.823 61.4787 90.8216 61.4773L90.8403 60.176ZM91.2576 60.5387C91.347 60.624 91.4336 60.708 91.5163 60.7947L91.231 61.74C91.223 61.732 91.2123 61.7267 91.2016 61.72L91.2576 60.5387ZM91.7296 61.016C91.8376 61.1333 91.9363 61.2493 92.031 61.364L91.7176 62.1373C91.703 62.1253 91.6923 62.1133 91.6776 62.1L91.7296 61.016ZM92.199 61.5733C92.247 61.636 92.3003 61.7013 92.3456 61.76C92.2936 61.9933 92.2416 62.2253 92.1896 62.456L92.199 61.5733ZM92.2483 73.476L92.0776 73.488L92.0616 73.476L92.4176 63.308L92.691 62.116C92.7643 61.7933 92.7003 61.4267 92.527 61.1907C92.1843 60.7267 91.7363 60.2187 91.1403 59.728C90.5083 59.208 89.9283 58.9147 89.475 58.744C89.2736 58.664 89.327 58.7427 89.2056 58.7347L89.071 61.364L88.6296 71.0293L88.5496 72.436L91.9776 74.1187L92.2483 73.476Z" fill="black"/>
<path fill-rule="evenodd" clip-rule="evenodd" d="M77.5063 55.9858L77.4769 54.8805C77.5569 54.9565 77.6436 55.0352 77.7183 55.1085C77.6463 55.4018 77.5769 55.6938 77.5063 55.9858ZM77.1236 69.4112L76.8903 69.2898L77.1529 56.6792C77.1916 56.7085 77.2249 56.7298 77.2636 56.7605L77.1236 69.4112ZM76.6796 55.5632L76.7089 54.2045C76.8836 54.3472 77.0463 54.4872 77.2023 54.6258L76.7423 55.6085C76.7196 55.5938 76.7023 55.5778 76.6796 55.5632ZM76.5623 60.7085L75.0876 59.8832L75.1809 55.5205C75.4503 55.6298 75.7076 55.7632 75.9729 55.9032C76.1556 56.0018 76.3756 56.1298 76.6196 56.2898L76.5623 60.7085ZM76.4516 69.0592L74.9129 68.2512L75.1089 60.6032L76.5529 61.3965L76.4516 69.0592ZM74.5729 54.5832L74.5983 52.8192C74.7103 52.8792 74.8276 52.9485 74.9449 53.0152L74.5836 54.5858C74.5796 54.5845 74.5769 54.5845 74.5729 54.5832ZM74.3156 59.4605L73.2609 58.8685L73.3663 55.3392L73.3996 55.3445C73.3983 55.3365 73.3983 55.3285 73.3969 55.3205C73.5796 55.2872 73.8209 55.2538 74.1263 55.2712C74.2249 55.2765 74.3116 55.2965 74.4049 55.3098L74.3156 59.4605ZM73.0143 67.2552L73.2423 59.5192L74.3009 60.1538L74.3529 67.9578L73.0143 67.2552ZM73.4996 52.3045L73.4556 54.3752L73.5489 54.3885C73.4743 54.3805 73.4023 54.3752 73.3316 54.3712C73.2796 53.6365 73.2289 52.9018 73.1783 52.1658C73.2756 52.2018 73.3956 52.2632 73.4996 52.3045ZM74.3116 52.6578L74.0823 54.4672H74.0836C74.0769 54.4658 74.0729 54.4658 74.0663 54.4645L74.0823 54.4672L73.8263 52.4432C73.9876 52.5152 74.1383 52.5725 74.3116 52.6578ZM75.4983 53.3272C75.5756 53.3752 75.6436 53.4272 75.7169 53.4765L75.3383 54.8418C75.3263 54.8365 75.3156 54.8298 75.3036 54.8258C75.3009 54.8245 75.2983 54.8232 75.2956 54.8232L75.2623 53.1938C75.3436 53.2432 75.4169 53.2738 75.4983 53.3272V53.3272ZM75.9396 53.6285C76.0863 53.7312 76.2263 53.8325 76.3623 53.9365L75.9569 55.1325C75.9423 55.1245 75.9236 55.1178 75.9089 55.1098L75.9396 53.6285ZM75.7143 52.6192C74.6943 51.9965 73.7596 51.6565 73.0369 51.4632C72.7129 51.3725 72.8036 51.4685 72.6103 51.4645L72.5236 54.7592L72.2876 66.8752L72.2289 68.6378L77.7276 70.5885L78.1249 69.7712L77.8556 69.7952L77.8263 69.7805L77.9063 57.0405L78.2809 55.5365C78.3823 55.1298 78.2623 54.6752 77.9783 54.3872C77.4156 53.8205 76.6823 53.2072 75.7143 52.6192Z" fill="black"/>
<path fill-rule="evenodd" clip-rule="evenodd" d="M68.5871 46.2736L82.6244 54.6936L82.5444 73.4189L82.4911 77.1896L68.4497 72.5002L68.5871 46.2736ZM69.6764 44.3442L69.6111 46.0282L68.8751 45.6096L69.6591 44.3336L69.6764 44.3442ZM70.6497 44.9256L70.5831 46.5802L69.7977 46.1349L70.5697 44.8789L70.6497 44.9256ZM71.5484 45.4962L71.4844 47.0936L70.8031 46.7069L71.5484 45.4962ZM72.4457 46.0962L72.3857 47.6056L71.7417 47.2402L72.4457 46.0962ZM73.3391 46.6069L73.2804 48.1136L72.6377 47.7482L73.3391 46.6069ZM74.1551 47.3016L74.1044 48.5816L73.5591 48.2722L74.1551 47.3016ZM75.0431 47.6109L74.9844 49.0829L74.3564 48.7256L75.0431 47.6109ZM75.9111 48.2736L75.8591 49.5802L75.3017 49.2629L75.9111 48.2736ZM76.8151 48.7469L76.7617 50.0936L76.1884 49.7669L76.8151 48.7469ZM77.6964 49.3589L77.6484 50.5962L77.1204 50.2976L77.6964 49.3589ZM78.5697 49.9176L78.5231 51.0949L78.0217 50.8096L78.5697 49.9176ZM79.4191 50.4576L79.3751 51.5789L78.8964 51.3069L79.4191 50.4576ZM80.2951 50.9429L80.2511 52.0762L79.7684 51.8016L80.2951 50.9429ZM81.1257 51.5189L81.0844 52.5509L80.6457 52.3002L81.1257 51.5189ZM82.0071 51.9336L81.9631 53.0496L81.4884 52.7789L82.0071 51.9336ZM68.7284 19.2376L82.7337 29.6602L82.6404 51.1616L68.6057 42.9282L68.7284 19.2376ZM83.2017 29.0829L83.1684 29.5069L68.7217 18.6576L68.6417 17.9589L83.2017 29.0829ZM67.3724 72.6709L83.2911 78.0509L83.3044 77.4616L83.6377 28.7962L68.0577 17.0309L67.3724 72.6709Z" fill="black"/>
<path fill-rule="evenodd" clip-rule="evenodd" d="M97.2185 41.5529L85.8612 32.3542L85.7985 31.7622L97.2452 41.1942L97.2185 41.5529ZM96.8025 59.9142L85.7692 52.9329L85.8665 32.8449L96.8772 41.6822L96.8025 59.9142ZM95.8972 61.2862L96.3052 60.5689L96.2719 61.5155L95.8972 61.2862ZM95.2359 60.8795L95.6132 60.2169L95.5799 61.0916L95.2359 60.8795ZM94.5452 60.4569L94.9612 59.7289L94.9252 60.6902L94.5452 60.4569ZM93.8599 60.0369L94.2719 59.3169L94.2372 60.2675L93.8599 60.0369ZM93.1732 59.6156L93.6039 58.8595L93.5679 59.8569L93.1732 59.6156ZM92.4652 59.1809L92.9172 58.3862L92.8785 59.4355L92.4652 59.1809ZM91.7319 58.7315L92.2239 57.8676L92.1825 59.0075L91.7319 58.7315ZM91.0345 58.3049L91.5145 57.4649L91.4719 58.5729L91.0345 58.3049ZM90.2919 57.8489L90.8305 56.9036L90.7852 58.1516L90.2919 57.8489ZM89.6639 57.4635L90.1332 56.6409L90.0932 57.7276L89.6639 57.4635ZM88.9399 57.0209L89.4919 56.0516L89.4452 57.3302L88.9399 57.0209ZM88.2359 56.5889L88.7892 55.6195L88.7412 56.8982L88.2359 56.5889ZM87.4985 56.1369L88.0825 55.1102L88.0332 56.4649L87.4985 56.1369ZM86.7079 55.6516L87.3145 54.5862L87.3772 54.6262L87.3252 56.0302L86.7079 55.6516ZM85.9812 55.2062L86.5985 54.1249L86.6132 54.1342L86.5599 55.5609L85.9812 55.2062ZM96.7279 78.7862L96.6905 81.5515L85.8332 77.9955C85.7999 77.9795 85.7332 77.9529 85.6479 77.9329L85.7559 55.7702L96.7919 62.9102L96.7279 78.7862ZM85.3399 30.9756L84.8012 78.1315C84.7892 78.1422 84.7639 78.1582 84.7545 78.1662L97.3412 82.3582L97.3545 81.7689L97.3279 81.7609L97.5879 40.9502L85.3399 30.9756Z" fill="black"/>
</g>
</g>
<defs>
<clipPath id="clip0">
<rect width="100.407" height="133.333" fill="white"/>
</clipPath>
<clipPath id="clip1">
<rect width="100.301" height="133.372" fill="white" transform="matrix(1 0 0 -1 0.105743 133.353)"/>
</clipPath>
</defs>
</svg>
